<svg width="64" height="64" viewBox="0 0 64 64" fill="none" xmlns="http://www.w3.org/2000/svg">
<circle cx="32" cy="32" r="31" fill="#0F1C20" fill-opacity="0.8"/>
<path d="M32 63.5C25.8683 63.5 19.87 61.7104 14.7406 58.3508C9.6113 54.9912 5.57401 50.2075 3.12395 44.5866C0.673883 38.9657 -0.0824216 32.752 0.947797 26.7075C1.97802 20.663 4.74996 15.0506 8.92365 10.5586C13.0973 6.06669 18.4913 2.89051 24.4439 1.41968C30.3966 -0.0511509 36.6491 0.247309 42.4345 2.27845C48.22 4.3096 53.2869 7.98512 57.0138 12.8542C60.7406 17.7233 62.9654 23.5742 63.4151 29.6893" stroke="#9EBC00"/>
<path d="M19.3636 27.39V26.2H25.8736V27.39L21.8136 36H20.4836L24.5436 27.404V27.39H19.3636ZM26.1618 33.9V32.71L29.5918 26.2H30.9918L27.5618 32.71H31.2718V30.19H31.3418H32.5318V32.71H34.0018V33.9H32.5318V36H31.2718V33.9H26.1618ZM35.3033 30.008C34.8553 29.5507 34.6313 29.0047 34.6313 28.37C34.6313 27.7353 34.8553 27.194 35.3033 26.746C35.7606 26.2887 36.3066 26.06 36.9413 26.06C37.576 26.06 38.1173 26.2887 38.5653 26.746C39.0226 27.194 39.2513 27.7353 39.2513 28.37C39.2513 29.0047 39.0226 29.5507 38.5653 30.008C38.1173 30.456 37.576 30.68 36.9413 30.68C36.3066 30.68 35.7606 30.456 35.3033 30.008ZM35.8913 36L41.7713 26.2H42.9613L37.0813 36H35.8913ZM36.0313 27.418C35.798 27.6607 35.6813 27.978 35.6813 28.37C35.6813 28.762 35.798 29.084 36.0313 29.336C36.274 29.5787 36.5773 29.7 36.9413 29.7C37.3053 29.7 37.604 29.5787 37.8373 29.336C38.08 29.084 38.2013 28.762 38.2013 28.37C38.2013 27.978 38.08 27.6607 37.8373 27.418C37.604 27.166 37.3053 27.04 36.9413 27.04C36.5773 27.04 36.274 27.166 36.0313 27.418ZM40.2733 35.468C39.8253 35.0107 39.6013 34.4647 39.6013 33.83C39.6013 33.1953 39.8253 32.654 40.2733 32.206C40.7306 31.7487 41.2766 31.52 41.9113 31.52C42.546 31.52 43.0873 31.7487 43.5353 32.206C43.9926 32.654 44.2213 33.1953 44.2213 33.83C44.2213 34.4647 43.9926 35.0107 43.5353 35.468C43.0873 35.916 42.546 36.14 41.9113 36.14C41.2766 36.14 40.7306 35.916 40.2733 35.468ZM41.0013 32.878C40.768 33.1207 40.6513 33.438 40.6513 33.83C40.6513 34.222 40.768 34.544 41.0013 34.796C41.244 35.0387 41.5473 35.16 41.9113 35.16C42.2753 35.16 42.574 35.0387 42.8073 34.796C43.05 34.544 43.1713 34.222 43.1713 33.83C43.1713 33.438 43.05 33.1207 42.8073 32.878C42.574 32.626 42.2753 32.5 41.9113 32.5C41.5473 32.5 41.244 32.626 41.0013 32.878Z" fill="#CAD1A6"/>
<path d="M19.3636 27.39H18.3636V28.39H19.3636V27.39ZM19.3636 26.2V25.2H18.3636V26.2H19.3636ZM25.8736 26.2H26.8736V25.2H25.8736V26.2ZM25.8736 27.39L26.7781 27.8165L26.8736 27.6139V27.39H25.8736ZM21.8136 36V37H22.4477L22.7181 36.4265L21.8136 36ZM20.4836 36L19.5794 35.5729L18.9054 37H20.4836V36ZM24.5436 27.404L25.4479 27.8311L25.5436 27.6283V27.404H24.5436ZM24.5436 27.39H25.5436V26.39H24.5436V27.39ZM20.3636 27.39V26.2H18.3636V27.39H20.3636ZM19.3636 27.2H25.8736V25.2H19.3636V27.2ZM24.8736 26.2V27.39H26.8736V26.2H24.8736ZM24.9691 26.9635L20.9091 35.5735L22.7181 36.4265L26.7781 27.8165L24.9691 26.9635ZM21.8136 35H20.4836V37H21.8136V35ZM21.3878 36.4271L25.4479 27.8311L23.6394 26.9769L19.5794 35.5729L21.3878 36.4271ZM25.5436 27.404V27.39H23.5436V27.404H25.5436ZM24.5436 26.39H19.3636V28.39H24.5436V26.39ZM26.1618 33.9H25.1618V34.9H26.1618V33.9ZM26.1618 32.71L25.2771 32.2439L25.1618 32.4627V32.71H26.1618ZM29.5918 26.2V25.2H28.9884L28.7071 25.7339L29.5918 26.2ZM30.9918 26.2L31.8765 26.6661L32.649 25.2H30.9918V26.2ZM27.5618 32.71L26.6771 32.2439L25.9046 33.71H27.5618V32.71ZM31.2718 32.71V33.71H32.2718V32.71H31.2718ZM31.2718 30.19V29.19H30.2718V30.19H31.2718ZM32.5318 30.19H33.5318V29.19H32.5318V30.19ZM32.5318 32.71H31.5318V33.71H32.5318V32.71ZM34.0018 32.71H35.0018V31.71H34.0018V32.71ZM34.0018 33.9V34.9H35.0018V33.9H34.0018ZM32.5318 33.9V32.9H31.5318V33.9H32.5318ZM32.5318 36V37H33.5318V36H32.5318ZM31.2718 36H30.2718V37H31.2718V36ZM31.2718 33.9H32.2718V32.9H31.2718V33.9ZM27.1618 33.9V32.71H25.1618V33.9H27.1618ZM27.0465 33.1761L30.4765 26.6661L28.7071 25.7339L25.2771 32.2439L27.0465 33.1761ZM29.5918 27.2H30.9918V25.2H29.5918V27.2ZM30.1071 25.7339L26.6771 32.2439L28.4465 33.1761L31.8765 26.6661L30.1071 25.7339ZM27.5618 33.71H31.2718V31.71H27.5618V33.71ZM32.2718 32.71V30.19H30.2718V32.71H32.2718ZM31.2718 31.19H31.3418V29.19H31.2718V31.19ZM31.3418 31.19H32.5318V29.19H31.3418V31.19ZM31.5318 30.19V32.71H33.5318V30.19H31.5318ZM32.5318 33.71H34.0018V31.71H32.5318V33.71ZM33.0018 32.71V33.9H35.0018V32.71H33.0018ZM34.0018 32.9H32.5318V34.9H34.0018V32.9ZM31.5318 33.9V36H33.5318V33.9H31.5318ZM32.5318 35H31.2718V37H32.5318V35ZM32.2718 36V33.9H30.2718V36H32.2718ZM31.2718 32.9H26.1618V34.9H31.2718V32.9ZM35.3033 30.008L34.5889 30.7078L34.5961 30.7151L34.6035 30.7224L35.3033 30.008ZM35.3033 26.746L36.0104 27.4531L36.0104 27.4531L35.3033 26.746ZM38.5653 26.746L37.8509 27.4458L37.8581 27.4531L37.8655 27.4604L38.5653 26.746ZM35.8913 36L35.0338 35.4855L34.1251 37H35.8913V36ZM41.7713 26.2V25.2H41.2051L40.9138 25.6855L41.7713 26.2ZM42.9613 26.2L43.8188 26.7145L44.7275 25.2H42.9613V26.2ZM37.0813 36V37H37.6475L37.9388 36.5145L37.0813 36ZM36.0313 27.418L35.311 26.7244L35.3105 26.7249L36.0313 27.418ZM36.0313 29.336L35.2975 30.0154L35.3106 30.0295L35.3242 30.0431L36.0313 29.336ZM37.8373 29.336L37.117 28.6424L37.1165 28.6429L37.8373 29.336ZM37.8373 27.418L37.1035 28.0974L37.1166 28.1115L37.1302 28.1251L37.8373 27.418ZM40.2733 35.468L39.5589 36.1678L39.5661 36.1751L39.5735 36.1824L40.2733 35.468ZM40.2733 32.206L39.5662 31.4989L39.5662 31.4989L40.2733 32.206ZM43.5353 32.206L42.8209 32.9058L42.8281 32.9131L42.8355 32.9204L43.5353 32.206ZM43.5353 35.468L44.2424 36.1751L44.2424 36.1751L43.5353 35.468ZM41.0013 32.878L40.281 32.1844L40.2805 32.1849L41.0013 32.878ZM41.0013 34.796L40.2675 35.4754L40.2806 35.4895L40.2942 35.5031L41.0013 34.796ZM42.8073 34.796L42.087 34.1024L42.0865 34.1029L42.8073 34.796ZM42.8073 32.878L42.0735 33.5574L42.0866 33.5715L42.1002 33.5851L42.8073 32.878ZM36.0176 29.3082C35.751 29.036 35.6313 28.7405 35.6313 28.37H33.6313C33.6313 29.2689 33.9596 30.0654 34.5889 30.7078L36.0176 29.3082ZM35.6313 28.37C35.6313 28 35.7503 27.7132 36.0104 27.4531L34.5962 26.0389C33.9603 26.6748 33.6313 27.4706 33.6313 28.37H35.6313ZM36.0104 27.4531C36.2842 27.1793 36.5775 27.06 36.9413 27.06V25.06C36.0358 25.06 35.237 25.398 34.5962 26.0389L36.0104 27.4531ZM36.9413 27.06C37.3045 27.06 37.5892 27.1786 37.8509 27.4458L39.2796 26.0462C38.6454 25.3988 37.8474 25.06 36.9413 25.06V27.06ZM37.8655 27.4604C38.1327 27.7221 38.2513 28.0068 38.2513 28.37H40.2513C40.2513 27.4639 39.9125 26.6659 39.2651 26.0316L37.8655 27.4604ZM38.2513 28.37C38.2513 28.7338 38.132 29.0271 37.8582 29.3009L39.2724 30.7151C39.9133 30.0742 40.2513 29.2755 40.2513 28.37H38.2513ZM37.8582 29.3009C37.5981 29.561 37.3113 29.68 36.9413 29.68V31.68C37.8407 31.68 38.6365 31.351 39.2724 30.7151L37.8582 29.3009ZM36.9413 29.68C36.5708 29.68 36.2753 29.5603 36.0031 29.2936L34.6035 30.7224C35.2459 31.3517 36.0424 31.68 36.9413 31.68V29.68ZM36.7488 36.5145L42.6288 26.7145L40.9138 25.6855L35.0338 35.4855L36.7488 36.5145ZM41.7713 27.2H42.9613V25.2H41.7713V27.2ZM42.1038 25.6855L36.2238 35.4855L37.9388 36.5145L43.8188 26.7145L42.1038 25.6855ZM37.0813 35H35.8913V37H37.0813V35ZM35.3105 26.7249C34.8687 27.1843 34.6813 27.7652 34.6813 28.37H36.6813C36.6813 28.1908 36.7272 28.137 36.7521 28.1111L35.3105 26.7249ZM34.6813 28.37C34.6813 28.9757 34.8687 29.5523 35.2975 30.0154L36.765 28.6566C36.7272 28.6157 36.6813 28.5483 36.6813 28.37H34.6813ZM35.3242 30.0431C35.7666 30.4856 36.3299 30.7 36.9413 30.7V28.7C36.8247 28.7 36.7813 28.6718 36.7384 28.6289L35.3242 30.0431ZM36.9413 30.7C37.5528 30.7 38.1199 30.4849 38.5581 30.0291L37.1165 28.6429C37.088 28.6725 37.0578 28.7 36.9413 28.7V30.7ZM38.5576 30.0296C39.0019 29.5683 39.2013 28.9868 39.2013 28.37H37.2013C37.2013 28.5372 37.158 28.5997 37.117 28.6424L38.5576 30.0296ZM39.2013 28.37C39.2013 27.7538 39.0017 27.1682 38.5444 26.7109L37.1302 28.1251C37.1582 28.1531 37.2013 28.2022 37.2013 28.37H39.2013ZM38.5711 26.7386C38.1361 26.2688 37.5651 26.04 36.9413 26.04V28.04C37.0455 28.04 37.0718 28.0632 37.1035 28.0974L38.5711 26.7386ZM36.9413 26.04C36.3179 26.04 35.7505 26.2679 35.311 26.7244L36.7516 28.1116C36.7974 28.0641 36.8367 28.04 36.9413 28.04V26.04ZM40.9876 34.7682C40.721 34.496 40.6013 34.2005 40.6013 33.83H38.6013C38.6013 34.7289 38.9296 35.5254 39.5589 36.1678L40.9876 34.7682ZM40.6013 33.83C40.6013 33.46 40.7203 33.1732 40.9804 32.9131L39.5662 31.4989C38.9303 32.1348 38.6013 32.9306 38.6013 33.83H40.6013ZM40.9804 32.9131C41.2542 32.6393 41.5475 32.52 41.9113 32.52V30.52C41.0058 30.52 40.207 30.858 39.5662 31.4989L40.9804 32.9131ZM41.9113 32.52C42.2745 32.52 42.5592 32.6386 42.8209 32.9058L44.2496 31.5062C43.6154 30.8588 42.8174 30.52 41.9113 30.52V32.52ZM42.8355 32.9204C43.1027 33.1821 43.2213 33.4668 43.2213 33.83H45.2213C45.2213 32.9239 44.8825 32.1259 44.2351 31.4916L42.8355 32.9204ZM43.2213 33.83C43.2213 34.1938 43.102 34.4871 42.8282 34.7609L44.2424 36.1751C44.8833 35.5342 45.2213 34.7355 45.2213 33.83H43.2213ZM42.8282 34.7609C42.5681 35.021 42.2813 35.14 41.9113 35.14V37.14C42.8107 37.14 43.6065 36.811 44.2424 36.1751L42.8282 34.7609ZM41.9113 35.14C41.5408 35.14 41.2453 35.0203 40.9731 34.7536L39.5735 36.1824C40.2159 36.8117 41.0124 37.14 41.9113 37.14V35.14ZM40.2805 32.1849C39.8387 32.6443 39.6513 33.2252 39.6513 33.83H41.6513C41.6513 33.6508 41.6972 33.597 41.7221 33.5711L40.2805 32.1849ZM39.6513 33.83C39.6513 34.4357 39.8387 35.0123 40.2675 35.4754L41.7351 34.1166C41.6972 34.0757 41.6513 34.0083 41.6513 33.83H39.6513ZM40.2942 35.5031C40.7366 35.9456 41.2999 36.16 41.9113 36.16V34.16C41.7947 34.16 41.7513 34.1318 41.7084 34.0889L40.2942 35.5031ZM41.9113 36.16C42.5228 36.16 43.0899 35.9449 43.5281 35.4891L42.0865 34.1029C42.058 34.1325 42.0278 34.16 41.9113 34.16V36.16ZM43.5276 35.4896C43.9719 35.0283 44.1713 34.4468 44.1713 33.83H42.1713C42.1713 33.9972 42.128 34.0597 42.087 34.1024L43.5276 35.4896ZM44.1713 33.83C44.1713 33.2138 43.9717 32.6282 43.5144 32.1709L42.1002 33.5851C42.1282 33.6131 42.1713 33.6622 42.1713 33.83H44.1713ZM43.5411 32.1986C43.1061 31.7288 42.5351 31.5 41.9113 31.5V33.5C42.0155 33.5 42.0418 33.5232 42.0735 33.5574L43.5411 32.1986ZM41.9113 31.5C41.2879 31.5 40.7205 31.7279 40.281 32.1844L41.7216 33.5716C41.7674 33.5241 41.8067 33.5 41.9113 33.5V31.5Z" fill="black"/>
</svg>
