<svg width="9" height="14" viewBox="0 0 9 14" fill="none" xmlns="http://www.w3.org/2000/svg">
<path d="M5.97585 12.3667C5.97585 13.2689 5.22677 14 4.30238 14C3.37798 14 2.62891 13.2689 2.62891 12.3667C2.62891 11.4645 3.37798 10.7334 4.30238 10.7334C5.22677 10.7178 5.97585 11.4489 5.97585 12.3667Z" fill="#9EBC00"/>
<path d="M0 4.26218C0 4.97773 1.3069 5.31995 1.65754 4.35551C2.11973 3.06442 3.90477 1.71109 5.24355 2.70664C7.14015 4.10663 3.6657 6.81327 3.18757 7.82437C3.02819 8.13548 2.98038 8.57103 2.96444 9.02214C2.96444 9.25547 3.17163 9.44213 3.4107 9.44213H5.11605C5.35511 9.44213 5.56231 9.27102 5.62606 9.0688C5.65793 8.94436 5.72168 8.81992 5.78544 8.71103C6.29545 7.87104 8.74987 6.79771 8.74987 4.27774C8.73394 1.91332 6.77358 0 4.36697 0C1.96035 0 0 1.91332 0 4.26218Z" fill="#9EBC00"/>
</svg>
