<svg width="17" height="17" viewBox="0 0 17 17" fill="none" xmlns="http://www.w3.org/2000/svg">
<path d="M14.7064 2.29833C14.3163 1.90272 13.8441 1.595 13.3256 1.39965C12.8341 1.20976 12.2785 1.08038 11.4847 1.04533C10.7076 1.00845 10.4571 1 8.5028 1C6.54799 1 6.29828 1.00846 5.52434 1.04245C4.73062 1.07745 4.17181 1.20687 3.68237 1.39696C3.15905 1.59491 2.68926 1.89966 2.29832 2.29916M14.7064 2.29833L14.7043 2.29623L14.4889 2.51673L14.7085 2.30044L14.7064 2.29833ZM14.7064 2.29833C15.1059 2.68927 15.4107 3.15905 15.6086 3.68224C15.7989 4.17184 15.9282 4.73062 15.9631 5.52429C15.9972 6.29915 16 6.54994 16 8.5028C16 10.4576 15.9915 10.7073 15.9575 11.4813C15.9225 12.2761 15.7928 12.8321 15.6027 13.3241C15.1977 14.3717 14.3693 15.2002 13.3216 15.6054M13.3216 15.6054L13.2102 15.3179M13.3216 15.6054C12.8318 15.7958 12.2728 15.9253 11.4786 15.9603C10.7046 15.9944 10.4548 16.0028 8.50006 16.0028C6.54528 16.0028 6.29543 15.9944 5.52155 15.9603C4.72738 15.9253 4.17171 15.7959 3.67999 15.606C3.16135 15.4106 2.68898 15.1027 2.29874 14.7069M2.29874 14.7069L2.30044 14.7085L2.51673 14.4889L2.29707 14.7052L2.29874 14.7069ZM2.29874 14.7069C1.90318 14.3169 1.59542 13.8476 1.39708 13.3234C1.20687 12.8338 1.07745 12.275 1.04245 11.4813C1.00846 10.7074 1 10.4576 1 8.5028C1 6.54851 1.00845 6.29796 1.04533 5.52092C1.08038 4.72711 1.20977 4.17157 1.39965 3.67994C1.59509 3.16156 1.90267 2.68935 2.29832 2.29916M2.29832 2.29916L2.29623 2.30129L2.51673 2.51673L2.30044 2.29707L2.29832 2.29916Z" stroke="#ECEFDC"/>
<path d="M8.50202 4.80566C6.46176 4.80566 4.8064 6.46092 4.8064 8.50129C4.8064 10.5417 6.46176 12.1969 8.50202 12.1969C10.5424 12.1969 12.1976 10.5417 12.1976 8.50129C12.1976 6.46092 10.5424 4.80566 8.50202 4.80566Z" stroke="#ECEFDC"/>
<path fill-rule="evenodd" clip-rule="evenodd" d="M11.8254 4.15813C11.8254 3.72205 12.1789 3.36865 12.6148 3.36865C13.0508 3.36865 13.4044 3.72203 13.4044 4.15813C13.4044 4.59413 13.0509 4.9476 12.6148 4.9476C12.1789 4.9476 11.8254 4.59411 11.8254 4.15813Z" stroke="#ECEFDC"/>
</svg>
