<svg width="15" height="15" viewBox="0 0 15 15" fill="none" xmlns="http://www.w3.org/2000/svg">
<path d="M13 6.05554C13 10.3333 7.5 14 7.5 14C7.5 14 2 10.3333 2 6.05554C2 4.59685 2.57946 3.1979 3.61091 2.16645C4.64236 1.135 6.04131 0.555542 7.5 0.555542C8.95869 0.555542 10.3576 1.135 11.3891 2.16645C12.4205 3.1979 13 4.59685 13 6.05554Z" stroke="#ECEFDC" stroke-linecap="round" stroke-linejoin="round"/>
<path d="M7.50033 7.88883C8.51285 7.88883 9.33366 7.06802 9.33366 6.0555C9.33366 5.04298 8.51285 4.22217 7.50033 4.22217C6.4878 4.22217 5.66699 5.04298 5.66699 6.0555C5.66699 7.06802 6.4878 7.88883 7.50033 7.88883Z" stroke="#ECEFDC" stroke-linecap="round" stroke-linejoin="round"/>
</svg>
