<svg width="17" height="17" viewBox="0 0 17 17" fill="none" xmlns="http://www.w3.org/2000/svg">
<path d="M15.9698 12.2304V14.4885C15.9707 14.6981 15.9277 14.9056 15.8437 15.0977C15.7598 15.2898 15.6366 15.4622 15.4821 15.6039C15.3277 15.7456 15.1453 15.8535 14.9467 15.9207C14.7481 15.9878 14.5377 16.0128 14.3289 15.9939C12.0127 15.7422 9.78788 14.9508 7.83311 13.6831C6.01446 12.5274 4.47255 10.9855 3.3169 9.16689C2.04482 7.20324 1.25318 4.96756 1.00611 2.64096C0.9873 2.43282 1.01204 2.22303 1.07875 2.02497C1.14545 1.82691 1.25267 1.6449 1.39357 1.49055C1.53448 1.33619 1.70598 1.21287 1.89715 1.12843C2.08833 1.04398 2.29499 1.00027 2.50399 1.00007H4.76209C5.12738 0.996478 5.48152 1.12583 5.75849 1.36403C6.03546 1.60222 6.21637 1.93301 6.26749 2.29472C6.3628 3.01736 6.53956 3.72691 6.79439 4.40981C6.89566 4.67922 6.91757 4.97202 6.85754 5.2535C6.79751 5.53498 6.65804 5.79336 6.45567 5.99801L5.49974 6.95394C6.57125 8.83837 8.13153 10.3986 10.0159 11.4702L10.9719 10.5142C11.1765 10.3118 11.4349 10.1724 11.7164 10.1123C11.9979 10.0523 12.2907 10.0742 12.5601 10.1755C13.243 10.4303 13.9525 10.6071 14.6752 10.7024C15.0408 10.754 15.3747 10.9381 15.6134 11.2199C15.8521 11.5016 15.979 11.8612 15.9698 12.2304Z" stroke="#ECEFDC" stroke-linecap="round" stroke-linejoin="round"/>
</svg>
