<svg width="18" height="17" viewBox="0 0 18 17" fill="none" xmlns="http://www.w3.org/2000/svg">
<path d="M8.75351 16.2735L9 16.5L9.24648 16.2735C9.66522 15.8891 10.1732 15.4096 10.7359 14.8784C11.1508 14.4864 11.5958 14.0664 12.0572 13.6351C14.617 11.2428 15.4356 10.4196 16.3161 9.18486C17.2558 7.86735 17.9347 6.91531 17.9925 5.5005C18.0619 4.26811 17.647 3.05595 16.8312 2.10772C16.1388 1.32072 15.194 0.781056 14.1478 0.574908C13.1305 0.397165 12.0812 0.537644 11.1518 0.975998C10.3114 1.35314 9.57433 1.91629 9 2.62001C8.42567 1.91629 7.68857 1.35314 6.84816 0.975998C5.91874 0.537874 4.86949 0.397404 3.85217 0.574908C2.80595 0.781056 1.86123 1.32072 1.16885 2.10772C0.35299 3.05595 -0.0619335 4.26811 0.00749508 5.5005C0.0652739 6.91531 0.744153 7.86735 1.68388 9.18486C2.56443 10.4196 3.38301 11.2428 5.94275 13.6351C6.40421 14.0664 6.84921 14.4864 7.2641 14.8784C7.82674 15.4096 8.33477 15.8891 8.75351 16.2735Z" fill="#9EBC00"/>
</svg>
