<svg width="17" height="18" viewBox="0 0 17 18" fill="none" xmlns="http://www.w3.org/2000/svg">
<path d="M10.0628 1H6.93719C3.66344 1 1 3.59633 1 6.78774V9.53307C1 11.9097 2.49781 14.0456 4.75 14.9156V16.6953C4.75 16.816 4.82281 16.925 4.93594 16.9738C4.97656 16.9915 5.01969 17 5.0625 17C5.13844 17 5.21375 16.9729 5.27219 16.9211L7.08438 15.3208H10.0628C13.3366 15.3208 16 12.7245 16 9.53307V6.78774C16 3.59633 13.3366 1 10.0628 1Z" stroke="#ECEFDC"/>
<path d="M12.63 10.2912L10.7093 9.07484C10.4993 8.94169 10.2493 8.89659 10.0047 8.94596C9.75965 8.99623 9.54903 9.13731 9.41246 9.34298L9.32215 9.47826C8.4909 9.21043 7.57434 8.86826 7.02559 7.31948L7.25278 7.12691C7.64278 6.79631 7.68371 6.21799 7.34465 5.83712L5.84215 4.15184C5.72903 4.02478 5.53153 4.01168 5.40121 4.12167L4.45778 4.9212C3.63028 5.62261 4.01684 6.66011 4.14403 7.00107C4.14965 7.0163 4.15653 7.03093 4.16465 7.04525C4.19746 7.10253 4.9809 8.46575 6.24621 9.72233C7.51653 10.9841 9.80996 12.1492 9.88028 12.1831C10.1422 12.3488 10.4368 12.4283 10.7284 12.4283C11.2403 12.4283 11.7422 12.1837 12.0415 11.7352L12.7222 10.7132C12.8159 10.5715 12.7747 10.3829 12.63 10.2912Z" stroke="#ECEFDC"/>
<path d="M8.8891 6.49993C9.5 6.49993 10.2562 6.99993 10.2562 7.8557M8.73285 4.96107C10 4.96107 11.6419 6.15228 11.6873 7.8557M8.73285 3.31753C12 3.31753 13.1078 5.64517 13.1078 7.8557" stroke="#ECEFDC" stroke-linecap="round"/>
</svg>
