<svg width="16" height="17" viewBox="0 0 16 17" fill="none" xmlns="http://www.w3.org/2000/svg">
<path d="M3.94737 12.1957L1.30512 14.7682C1.11004 14.9581 1 15.2188 1 15.4911V15.4911C1 16.0483 1.45172 16.5 2.00894 16.5H13.9911C14.5483 16.5 15 16.0483 15 15.4911V15.4911C15 15.2188 14.89 14.9581 14.6949 14.7682L12.0526 12.1957" stroke="#9EBC00"/>
<path d="M14.5 6.81522C14.5 10.2905 11.6025 13.1304 8 13.1304C4.39746 13.1304 1.5 10.2905 1.5 6.81522C1.5 3.33994 4.39746 0.5 8 0.5C11.6025 0.5 14.5 3.33994 14.5 6.81522Z" stroke="#9EBC00"/>
<path d="M10.079 6.81519C10.079 7.91324 9.16089 8.82606 8.00003 8.82606C6.83916 8.82606 5.92108 7.91324 5.92108 6.81519C5.92108 5.71714 6.83916 4.80432 8.00003 4.80432C9.16089 4.80432 10.079 5.71714 10.079 6.81519Z" stroke="#9EBC00"/>
<ellipse cx="8.00001" cy="6.81524" rx="0.368421" ry="0.358696" fill="#9EBC00"/>
</svg>
