<svg width="15" height="20" viewBox="0 0 15 20" fill="none" xmlns="http://www.w3.org/2000/svg">
<path d="M2.90337 10.0804C2.4872 10.5064 2.22656 11.0997 2.22656 11.7578C2.22656 13.0504 3.22518 14.1016 4.45312 14.1016H5.56641V15.6168L2.55272 18.8281H1.11328V20H11.1328V18.8281H9.69337L7.44565 16.423C8.26698 16.3133 8.90625 15.5814 8.90625 14.6875C8.90625 13.7183 8.15725 12.9297 7.23633 12.9297H6.67969V10.5855C7.0705 10.5855 10.1801 10.5859 10.0195 10.5859C12.5604 10.5859 14.6002 8.31573 14.4667 5.60822C14.3449 3.16193 12.251 1.17188 9.7989 1.17188H9.68729C8.9551 0.418396 7.99214 0 6.96613 0H6.12305C5.20227 0 4.45312 0.788574 4.45312 1.75781C4.45312 2.72705 5.20227 3.51562 6.12305 3.51562H6.96613C7.99214 3.51562 8.9551 3.09723 9.68729 2.34375H9.7989C11.6683 2.34375 13.2637 3.83545 13.3544 5.6694C13.4448 7.47131 12.2313 9.16061 10.3915 9.37469C11.5139 8.40698 12.2461 6.91635 12.2461 5.27344V4.6875H0V5.27344C0 7.38678 1.19431 9.23981 2.90337 10.0804ZM6.67969 14.1016H7.23633C7.5435 14.1016 7.79297 14.3642 7.79297 14.6875C7.79297 15.0108 7.5435 15.2734 7.23633 15.2734H6.67969V14.1016ZM4.45312 10.5855C4.56518 10.5855 5.67846 10.5855 5.56641 10.5855V12.9297H4.45312C3.83937 12.9297 3.33984 12.4039 3.33984 11.7578C3.33984 11.1118 3.83937 10.5855 4.45312 10.5855Z" fill="#9EBC00"/>
</svg>
