<svg width="19" height="20" viewBox="0 0 19 20" fill="none" xmlns="http://www.w3.org/2000/svg">
<path d="M17.3766 4.89044C17.2133 3.29395 16.9531 2.05091 16.5416 1.56232C14.8447 -0.446617 2.95838 -0.593633 1.60882 1.56232C1.27869 2.09052 1.04716 3.32916 0.891784 4.89309C0.390431 4.95207 0 5.37419 0 5.89095V7.84663C0 8.28151 0.275546 8.64818 0.660255 8.79123C0.56914 11.8715 0.643088 15.0852 0.779541 16.6835C0.779541 17.9173 1.60838 17.7126 1.60838 17.7126H2.38528V19.0445C2.38528 19.5728 2.92977 20.0002 3.60059 20.0002C4.27229 20.0002 4.81678 19.5728 4.81678 19.0445V17.7126H13.8552V19.0445C13.8552 19.5728 14.3993 20.0002 15.071 20.0002C15.7418 20.0002 16.2863 19.5728 16.2863 19.0445V17.7126H16.5416C16.5416 17.7126 17.517 17.8464 17.5795 17.2654C17.5795 15.6715 17.6799 12.1392 17.5971 8.80488C18.006 8.67679 18.3045 8.3 18.3045 7.84663V5.89095C18.3049 5.36187 17.8955 4.9327 17.3766 4.89044ZM4.51174 1.84887H13.6387V3.22968H4.51174V1.84887ZM4.64203 16.1399C3.92544 16.1399 3.34485 15.5588 3.34485 14.8422C3.34485 14.1261 3.92544 13.5455 4.64203 13.5455C5.35863 13.5455 5.93965 14.1261 5.93965 14.8422C5.93965 15.5588 5.35907 16.1399 4.64203 16.1399ZM13.5898 16.1399C12.8736 16.1399 12.2917 15.5588 12.2917 14.8422C12.2917 14.1261 12.8732 13.5455 13.5898 13.5455C14.3064 13.5455 14.887 14.1261 14.887 14.8422C14.8874 15.5588 14.3064 16.1399 13.5898 16.1399ZM15.2391 10.4617H2.91128V3.99558H15.2391V10.4617Z" />
</svg>
