<svg width="21" height="19" viewBox="0 0 21 19" fill="none" xmlns="http://www.w3.org/2000/svg">
<path fill-rule="evenodd" clip-rule="evenodd" d="M18.0199 17.8402C18.0346 17.9994 18.0241 18.1606 18.0241 18.3445C18.2838 18.3445 18.6585 18.3445 18.9266 18.3445C18.9369 18.1223 18.9472 17.8993 18.9595 17.6335C19.6821 17.7096 20.3163 17.7338 20.9876 17.9991C20.9918 18.0376 20.9958 18.0761 21 18.1144C20.8313 18.1709 20.6663 18.2591 20.4937 18.2787C19.4584 18.3963 18.4238 18.5579 17.3852 18.5936C14.6966 18.6858 12.0056 18.7686 9.31596 18.7637C6.58856 18.7586 3.85789 18.7101 1.14402 18.3788C0.844191 18.3421 0.548327 18.2693 0.252464 18.2052C0.183398 18.1902 0.122032 18.1408 0 18.0778C0.336696 17.8101 0.697892 17.8111 1.03156 17.7653C1.64101 17.6816 2.25537 17.6314 2.86903 17.5857C3.0501 17.5719 3.1306 17.4979 3.1985 17.34C3.78882 15.9654 4.08235 14.5258 4.14582 13.0369C4.20182 11.7162 4.11339 10.4049 3.86069 9.10596C3.85019 9.05182 3.83572 8.99816 3.82732 8.96339C3.50253 9.07819 3.19593 9.23569 2.87183 9.29332C1.33069 9.56678 0.0769992 8.08933 0.58356 6.60605C0.639326 6.44295 0.62976 6.34145 0.522428 6.20332C-0.132298 5.36333 -0.0394329 4.17405 0.735692 3.44535C0.857257 3.33125 0.908123 3.22649 0.904623 3.05779C0.875457 1.72804 1.86968 0.803817 3.1915 0.907416C3.29043 0.914882 3.42786 0.853983 3.49483 0.777917C4.34392 -0.185972 5.6144 -0.261804 6.57339 0.593353C6.64129 0.653785 6.79716 0.681785 6.88069 0.647719C8.44191 0.0132924 9.94946 1.14681 9.79126 2.83613C9.78239 2.93133 9.84516 3.07202 9.92169 3.13106C11.0867 4.03218 11.0816 5.61323 9.90022 6.50829C9.79219 6.59018 9.71216 6.64852 9.73736 6.82235C9.85892 7.66911 9.56213 8.3642 8.86283 8.84486C8.17101 9.32039 7.42785 9.32879 6.68259 8.93796C6.63429 8.91276 6.58319 8.89199 6.48193 8.84556C6.3914 9.38315 6.2857 9.88925 6.22433 10.4005C5.94877 12.6936 6.18116 14.9353 6.92129 17.1258C6.99782 17.3523 7.10469 17.4107 7.32822 17.3962C7.65628 17.3745 7.84365 17.3906 8.20624 17.3906C8.20624 17.711 8.21441 18.0773 8.21441 18.4093C8.48811 18.4093 8.95407 18.4091 9.23056 18.4091C9.23056 18.152 9.21306 17.865 9.21306 17.865C9.21306 17.865 9.2882 17.8631 9.23756 17.8542C9.30196 17.8701 9.2644 17.8407 9.2644 17.8407C9.2644 17.8407 9.2945 17.7793 9.3015 17.8542C9.55233 17.8542 9.97349 17.8757 10.2334 17.8757C10.2437 17.7378 10.2477 17.5332 10.2624 17.3372C12.5644 17.3852 14.6749 17.4216 16.9711 17.4695C16.9991 17.6027 16.9797 17.8153 17.0021 17.9217C17.2322 17.9217 17.7504 17.9324 17.9231 17.9324C17.9406 17.8323 17.9191 17.5173 17.9191 17.5173C17.9191 17.5173 17.9522 17.5222 18.0085 17.5082" fill="#9EBC00"/>
<path fill-rule="evenodd" clip-rule="evenodd" d="M19.2485 15.6678C19.0794 15.6825 18.9508 15.6662 18.7963 15.6795C18.7963 16.3335 18.7963 16.9763 18.7963 17.6192C18.7963 17.7326 18.7973 17.8462 18.7977 17.9596C18.7991 18.3413 18.8152 18.2466 18.4498 18.2597C18.2172 18.2678 18.1197 18.2772 18.1239 18.0375C18.1369 17.2619 18.1288 16.4859 18.1288 15.6863C18.0147 15.6863 17.9185 15.6863 17.7851 15.6863C17.7851 16.2761 17.7883 16.8608 17.7818 17.4456C17.7806 17.5506 17.755 17.7379 17.7137 17.7456C17.5429 17.7783 17.3595 17.7697 17.1859 17.7424C17.1532 17.7375 17.1285 17.5783 17.1278 17.4899C17.1226 16.8942 17.125 16.2988 17.125 15.6818C14.7679 15.6818 12.4334 15.6818 10.0628 15.6818C10.0628 16.3755 10.0628 17.0613 10.0628 17.7386C10.0019 17.758 9.97619 17.7715 9.94935 17.7739C9.39753 17.8282 9.39193 17.8196 9.39729 17.275C9.40243 16.7472 9.39846 16.2194 9.39846 15.6772C9.28203 15.6772 9.20199 15.6772 9.08416 15.6772C9.08416 16.2418 9.08346 16.7974 9.0844 17.3527C9.08463 17.5802 9.07506 17.8086 9.0935 18.0347C9.118 18.3329 8.9458 18.3392 8.72087 18.3437C8.49314 18.3486 8.4033 18.2916 8.4089 18.0445C8.42477 17.3529 8.41497 16.6606 8.41404 15.9688C8.41404 15.8764 8.40657 15.784 8.4019 15.6781C8.29481 15.6671 8.25911 15.6704 8.09204 15.6676C8.09204 15.4637 8.11094 15.3498 8.14361 15.2026C8.49407 14.6958 8.88747 14.1953 8.88747 14.1953C8.88747 14.1953 9.44326 14.2006 9.92345 14.2006C12.7477 14.2006 15.5724 14.2037 18.3969 14.1953C18.5002 14.1948 18.6577 14.1953 18.6577 14.1953C18.6577 14.1953 18.7793 14.3546 18.8241 14.4659C18.9422 14.7602 19.0957 15.0402 19.2198 15.3321C19.2546 15.4133 19.2387 15.5428 19.2485 15.6678Z" fill="#9EBC00"/>
<path fill-rule="evenodd" clip-rule="evenodd" d="M18.6555 12.6045C18.6555 12.8077 18.6555 12.8738 18.6555 13.0954C15.4006 13.0954 12.1519 13.0954 8.88574 13.0954C8.88574 12.8896 8.88574 12.8245 8.88574 12.6045C12.1407 12.6045 15.3903 12.6045 18.6555 12.6045Z" fill="#9EBC00"/>
<path fill-rule="evenodd" clip-rule="evenodd" d="M18.6565 13.4014C18.6565 13.6179 18.6649 13.7129 18.6649 13.9446C18.5655 13.95 18.4663 13.96 18.3676 13.96C15.3091 13.9609 12.2546 13.9343 9.19559 13.9458C9.06539 13.9462 8.89623 13.9507 8.89623 13.9507C8.89623 13.9507 8.88923 13.8545 8.88783 13.725C8.88643 13.579 8.88783 13.382 8.88783 13.382C8.88783 13.382 9.07449 13.3816 9.18813 13.382C12.2466 13.393 15.3054 13.3881 18.3639 13.3881C18.456 13.3883 18.5482 13.3963 18.6565 13.4014Z" fill="#9EBC00"/>
<path fill-rule="evenodd" clip-rule="evenodd" d="M8.91961 11.7185C12.1718 11.7185 15.4004 11.7185 18.6509 11.7185C18.6509 11.9332 18.649 12.0711 18.649 12.306C18.5361 12.306 18.4346 12.306 18.3333 12.306C15.339 12.3058 12.3449 12.306 9.35058 12.3056C9.10114 12.3056 8.91238 12.306 8.91238 12.306C8.91238 12.306 8.90281 12.062 8.91961 11.7185Z" fill="#9EBC00"/>
</svg>
