<svg width="20" height="18" viewBox="0 0 20 18" fill="none" xmlns="http://www.w3.org/2000/svg">
<path d="M11.2838 12.865C10.9278 13.0834 10.472 13.2036 10.0001 13.2036C9.52833 13.2036 9.07245 13.0834 8.71649 12.865L2.90492 9.30076C2.90492 9.30076 2.38037 8.97923 2.38037 9.70761C2.38037 10.5347 2.38037 13.0161 2.38037 13.0161C2.38037 13.0492 2.38037 13.2153 2.38037 13.2668C2.38037 15.1417 5.79181 17.163 9.99999 17.163C14.2082 17.163 17.6196 15.1418 17.6196 13.2668C17.6196 13.2153 17.6196 13.0492 17.6196 13.0161C17.6196 13.0161 17.6196 10.3843 17.6196 9.50694C17.6196 8.92229 17.2467 9.20797 17.2467 9.20797L11.2838 12.865Z" />
<path d="M19.6651 6.46561C20.1116 6.19176 20.1116 5.7436 19.6651 5.4697L10.8119 1.04255C10.3653 0.768694 9.63461 0.768694 9.18806 1.04255L0.334912 5.4697C-0.111637 5.74355 -0.111637 6.19171 0.334912 6.46561L9.18806 11.8953C9.63461 12.1692 10.3653 12.1692 10.8119 11.8953" />
<path d="M19.299 14.5138C19.299 13.0146 19.299 8.5171 19.299 8.5171C19.299 8.5171 19.3031 8.23306 19.1346 8.32686C18.9994 8.4021 18.668 8.58683 18.5513 8.68839C18.4165 8.80554 18.4468 9.06852 18.4468 9.06852C18.4468 9.06852 18.4468 13.1525 18.4468 14.5138C18.4468 14.5911 18.3804 14.628 18.3487 14.6466C18.0427 14.8265 17.8369 15.1586 17.8369 15.5394C17.8369 16.1116 18.3007 16.5754 18.8729 16.5754C19.4451 16.5754 19.9089 16.1116 19.9089 15.5394C19.9089 15.1572 19.7016 14.824 19.3936 14.6446C19.363 14.6267 19.299 14.591 19.299 14.5138Z" />
</svg>
