<svg width="20" height="21" viewBox="0 0 20 21" fill="none" xmlns="http://www.w3.org/2000/svg">
<path d="M18.5192 12.5014C17.3463 12.5737 15.8041 13.7455 14.3168 14.4191C12.4927 15.244 9.65453 14.5811 9.6542 14.5811C10.0929 14.3755 11.8721 13.9517 12.2303 13.7939C14.1348 12.9563 13.9725 11.2093 13.0657 11.224C11.868 11.2442 11.1636 11.5383 8.77262 11.8645C6.96009 12.1107 4.81642 12.0206 3.78828 12.4132C2.33689 12.9678 0 16.6978 0 16.6978L3.61382 20.2003C3.61382 20.2003 5.85186 17.9966 6.94022 17.9966C9.42157 17.9966 9.52159 17.9624 11.8248 17.8381C12.805 17.7857 13.0086 17.7455 13.5697 17.5565C16.5561 16.547 19.7621 13.8584 19.8211 13.5347C19.9569 12.7859 19.1377 12.4629 18.5192 12.5014Z" />
<path d="M3.6143 9.96503C3.71387 10.0288 3.83841 10.0388 3.94501 9.99066C5.87947 9.12175 7.84066 9.12175 9.77468 9.99066C9.86539 10.0306 9.96956 10.0306 10.0603 9.99066C11.9945 9.12175 13.956 9.12175 15.8899 9.99066C15.9344 10.0106 15.9837 10.0211 16.0315 10.0211C16.0981 10.0211 16.164 10.0021 16.2209 9.96503C16.3196 9.90138 16.3795 9.79168 16.3795 9.67374V1.02144C16.3795 0.784444 16.1786 0.705739 16.1722 0.702972C15.1348 0.236667 14.0703 0 13.0091 0C12.0756 0 11.1392 0.18464 10.2197 0.546615V4.79389C10.2197 4.96093 10.0851 5.09631 9.91731 5.09631C9.75093 5.09631 9.61494 4.96093 9.61494 4.79389V0.546615C8.69639 0.18464 7.76002 0 6.82636 0C5.76556 0 4.70067 0.236667 3.66257 0.702972C3.65631 0.705739 3.45557 0.808742 3.45557 1.02144V9.67374C3.45551 9.79168 3.51518 9.90133 3.6143 9.96503ZM4.15029 8.03052C5.03292 7.68149 5.93127 7.50405 6.82636 7.50405C7.83667 7.50405 8.8538 7.73014 9.84679 8.17653C9.89124 8.19645 9.94354 8.19645 9.98821 8.17653C10.9813 7.73014 11.9983 7.50405 13.0091 7.50405C13.9037 7.50405 14.8021 7.68149 15.6845 8.03052V9.1538C14.7907 8.81701 13.8814 8.64682 12.9739 8.64682C11.9489 8.64682 10.9212 8.86417 9.91725 9.29449C8.91385 8.86411 7.88616 8.64682 6.86056 8.64682C5.95336 8.64682 5.04427 8.81706 4.15024 9.15386L4.15029 8.03052Z" />
</svg>
