<svg width="16" height="20" viewBox="0 0 16 20" fill="none" xmlns="http://www.w3.org/2000/svg">
<path d="M12.2352 9.70922C13.1539 8.74273 13.7132 7.46359 13.7132 6.06062C13.7132 5.36117 13.5741 4.69258 13.3209 4.07809C14.0853 3.75746 14.6223 3.00207 14.6223 2.12125C14.6223 0.949687 13.6726 0 12.5011 0C11.6567 0 10.9277 0.493398 10.5863 1.20758C9.79778 0.823164 8.90348 0.606055 7.95567 0.606055C7.00785 0.606055 6.11348 0.823164 5.32492 1.20758C4.98352 0.493398 4.25449 0 3.4102 0C2.23867 0 1.28899 0.949688 1.28899 2.12121C1.28899 3.00207 1.82594 3.75746 2.59043 4.07805C2.33715 4.69254 2.19809 5.36113 2.19809 6.06059C2.19809 7.46355 2.75742 8.74269 3.6761 9.70918C2.06535 11.2331 -0.520818 13.6845 0.0921508 16.1362C0.375549 17.2699 1.11504 17.7188 1.89774 17.7594C1.95332 16.3086 3.01598 15.1515 4.3193 15.1515C5.65817 15.1515 6.74356 16.3725 6.74356 17.8787C6.74356 18.7357 6.39192 19.5 5.84246 20C6.78828 20 7.84477 20 7.95567 20C8.18863 20 9.17996 20 10.0689 20C9.51934 19.5 9.16778 18.7357 9.16778 17.8787C9.16778 16.3725 10.2531 15.1515 11.592 15.1515C12.8953 15.1515 13.958 16.3086 14.0136 17.7593C14.7963 17.7186 15.5358 17.2698 15.8192 16.1362C16.4321 13.6845 13.846 11.2332 12.2352 9.70922ZM3.18801 3.00176C2.79352 2.90254 2.5011 2.54648 2.5011 2.12121C2.5011 1.61914 2.90813 1.21211 3.4102 1.21211C3.82188 1.21211 4.16922 1.48598 4.2811 1.86133C3.86262 2.19035 3.49414 2.57438 3.18801 3.00176ZM10.3799 5.60605C10.631 5.60605 10.8344 5.80957 10.8344 6.06059C10.8344 6.3116 10.631 6.51512 10.3799 6.51512C10.1288 6.51512 9.92535 6.3116 9.92535 6.06059C9.92535 5.80957 10.1288 5.60605 10.3799 5.60605ZM5.53141 5.60605C5.7825 5.60605 5.98594 5.80957 5.98594 6.06059C5.98594 6.3116 5.7825 6.51512 5.53141 6.51512C5.28031 6.51512 5.07688 6.3116 5.07688 6.06059C5.07688 5.80957 5.28031 5.60605 5.53141 5.60605ZM7.95567 11.5152C5.94735 11.5152 4.3193 10.4298 4.3193 9.0909C4.3193 7.75199 5.94735 6.66664 7.95567 6.66664C9.96399 6.66664 11.592 7.75199 11.592 9.0909C11.592 10.4298 9.96395 11.5152 7.95567 11.5152ZM11.6302 1.86141C11.742 1.48602 12.0894 1.21215 12.5011 1.21215C13.0032 1.21215 13.4102 1.61918 13.4102 2.12125C13.4102 2.54652 13.1178 2.90258 12.7233 3.00187C12.4172 2.57441 12.0487 2.19035 11.6302 1.86141Z" />
</svg>
