<svg width="20" height="20" viewBox="0 0 20 20" fill="none" xmlns="http://www.w3.org/2000/svg">
<path d="M19.4732 17.0049L11.6309 9.1625L2.46835 0H1.7523L1.60609 0.371523C1.22019 1.35215 1.05531 2.35512 1.12933 3.27188C1.2137 4.31688 1.6107 5.2216 2.27745 5.88836L9.43019 13.0411L10.3736 12.0977L16.9863 19.4919C17.6441 20.1497 18.7764 20.1888 19.4732 19.4919C20.1589 18.8062 20.1589 17.6906 19.4732 17.0049Z" />
<path d="M6.11621 11.3845L0.514219 16.9865C-0.171406 17.6721 -0.171406 18.7878 0.514219 19.4734C1.16555 20.1248 2.2923 20.1823 3.00113 19.4734L8.60316 13.8714L6.11621 11.3845Z" />
<path d="M19.1445 3.33059L15.9667 6.50832L15.1377 5.67934L18.3155 2.50156L17.4865 1.67258L14.3087 4.85031L13.4798 4.02133L16.6575 0.843594L15.8286 0.0146484L11.6837 4.15957C11.1766 4.66664 10.8738 5.33992 10.831 6.05547C10.8202 6.23676 10.7791 6.41508 10.7109 6.58469L13.4035 9.27723C13.5731 9.20898 13.7514 9.16793 13.9327 9.15711C14.6482 9.11441 15.3215 8.81156 15.8286 8.30449L19.9735 4.15961L19.1445 3.33059Z" />
</svg>
