<svg width="20" height="20" viewBox="0 0 20 20" fill="none" xmlns="http://www.w3.org/2000/svg">
<path d="M12.8105 2.73406C12.7687 1.21945 11.5245 0 10 0C8.47547 0 7.23129 1.21945 7.18949 2.73406C4.49742 3.8016 2.5 6.51164 2.5 9.6875V18.125C2.5 19.159 3.34102 20 4.375 20H15.625C16.659 20 17.5 19.159 17.5 18.125V9.6875C17.5 6.51891 15.5093 3.80426 12.8105 2.73406ZM10 1.25C10.6954 1.25 11.2859 1.70672 11.4879 2.33586C10.5165 2.13957 9.4991 2.13645 8.51211 2.33586C8.71414 1.70672 9.30461 1.25 10 1.25ZM15 15.9375C15 16.9715 14.159 17.8125 13.125 17.8125H6.875C5.84102 17.8125 5 16.9715 5 15.9375V13.75C5 12.716 5.84102 11.875 6.875 11.875H13.125C14.159 11.875 15 12.716 15 13.75V15.9375ZM14.6875 10.3125C14.3422 10.3125 14.0625 10.0328 14.0625 9.6875C14.0625 7.44727 12.2402 5.625 10 5.625C7.75977 5.625 5.9375 7.44727 5.9375 9.6875C5.9375 10.0328 5.65781 10.3125 5.3125 10.3125C4.96719 10.3125 4.6875 10.0328 4.6875 9.6875C4.6875 6.7582 7.0707 4.375 10 4.375C12.9293 4.375 15.3125 6.7582 15.3125 9.6875C15.3125 10.0328 15.0328 10.3125 14.6875 10.3125Z" />
<path d="M13.125 13.125H6.875C6.53047 13.125 6.25 13.4055 6.25 13.75V15.9375C6.25 16.282 6.53047 16.5625 6.875 16.5625H13.125C13.4695 16.5625 13.75 16.282 13.75 15.9375V13.75C13.75 13.4055 13.4695 13.125 13.125 13.125Z" />
<path d="M19.375 10.625H18.9453C18.8375 10.625 18.75 10.7125 18.75 10.8203V17.3834C18.75 17.5562 18.9594 17.6454 19.0816 17.5234C19.6487 16.9571 20 16.1752 20 15.3125V11.25C20 10.9048 19.7202 10.625 19.375 10.625Z" />
<path d="M0 11.25V15.3125C0 16.1752 0.351289 16.9571 0.918359 17.5234C1.04062 17.6455 1.25 17.5562 1.25 17.3834V10.8203C1.25 10.7125 1.16254 10.625 1.05469 10.625H0.625C0.279805 10.625 0 10.9048 0 11.25Z" />
</svg>
