<svg width="20" height="20" viewBox="0 0 20 20" fill="none" xmlns="http://www.w3.org/2000/svg">
<path d="M19.645 6.14373L17.9912 4.4899L19.2344 3.24713C19.3443 3.13732 19.4061 2.98853 19.4061 2.83291C19.4061 2.67728 19.3443 2.52849 19.2345 2.41865L17.5699 0.754113C17.3502 0.534386 16.9611 0.534386 16.7414 0.754113L15.4986 1.99736L13.8445 0.343214C13.3869 -0.114405 12.6449 -0.114405 12.1873 0.343214C11.7296 0.800832 11.7296 1.54283 12.1873 2.00048L17.9877 7.801C18.4454 8.25862 19.1874 8.25862 19.645 7.801C20.1026 7.34338 20.1026 6.60139 19.645 6.14373Z" />
<path d="M7.80096 17.9994L2.00052 12.1989C1.54283 11.7413 0.80091 11.7413 0.343214 12.1989C-0.114405 12.6566 -0.114405 13.3986 0.343214 13.8562L1.99732 15.5103L0.756496 16.7506C0.646613 16.8605 0.584816 17.0093 0.584816 17.1649C0.584816 17.3205 0.646613 17.4693 0.756496 17.5792L2.42103 19.2432C2.53544 19.3576 2.68537 19.4149 2.83529 19.4149C2.98521 19.4149 3.13513 19.3576 3.24955 19.2432L4.48986 18.0029L6.14369 19.6567C6.60131 20.1144 7.34331 20.1144 7.80096 19.6567C8.25866 19.1991 8.25866 18.4571 7.80096 17.9994Z" />
<path d="M10.5294 6.97241L6.97217 10.5418L9.45811 13.0277L13.0154 9.45828L10.5294 6.97241Z" />
<path d="M17.9866 9.45823L10.5289 2.00044C10.0712 1.54282 9.32921 1.54282 8.87159 2.00044C8.4139 2.45814 8.4139 3.20005 8.87159 3.65775L16.3294 11.1155C16.787 11.5732 17.529 11.5732 17.9866 11.1155C18.4443 10.6579 18.4443 9.91592 17.9866 9.45823Z" />
<path d="M11.1148 16.342L3.657 8.88423C3.19938 8.42661 2.45739 8.42661 1.99977 8.88423C1.54207 9.34192 1.54207 10.0839 1.99977 10.5415L9.45756 17.9993C9.91518 18.4569 10.6572 18.4569 11.1148 17.9993C11.5725 17.5417 11.5725 16.7997 11.1148 16.342Z" />
</svg>
