<svg width="20" height="21" viewBox="0 0 20 21" fill="none" xmlns="http://www.w3.org/2000/svg">
<path d="M19.4732 17.5049L11.6309 9.6625L2.46835 0.5H1.7523L1.60609 0.871523C1.22019 1.85215 1.05531 2.85512 1.12933 3.77188C1.2137 4.81688 1.6107 5.7216 2.27745 6.38836L9.43019 13.5411L10.3736 12.5977L16.9863 19.9919C17.6441 20.6497 18.7764 20.6888 19.4732 19.9919C20.1589 19.3062 20.1589 18.1906 19.4732 17.5049Z" />
<path d="M6.11621 11.8845L0.514219 17.4865C-0.171406 18.1721 -0.171406 19.2878 0.514219 19.9734C1.16555 20.6248 2.2923 20.6823 3.00113 19.9734L8.60316 14.3714L6.11621 11.8845Z" />
<path d="M19.1445 3.83059L15.9667 7.00832L15.1377 6.17934L18.3155 3.00156L17.4865 2.17258L14.3087 5.35031L13.4798 4.52133L16.6575 1.34359L15.8286 0.514648L11.6837 4.65957C11.1766 5.16664 10.8738 5.83992 10.831 6.55547C10.8202 6.73676 10.7791 6.91508 10.7109 7.08469L13.4035 9.77723C13.5731 9.70898 13.7514 9.66793 13.9327 9.65711C14.6482 9.61441 15.3215 9.31156 15.8286 8.80449L19.9735 4.65961L19.1445 3.83059Z" />
</svg>
