<svg width="22" height="20" viewBox="0 0 22 20" fill="none" xmlns="http://www.w3.org/2000/svg">
<path d="M9.84881 16.5091L9.74056 14.3654C9.48815 14.4169 9.26292 14.4731 9.07428 14.5262C8.6584 14.6431 8.23446 14.4802 7.99464 14.1519C7.80432 13.8913 7.75162 13.5648 7.84997 13.2565C8.07704 12.5456 8.39575 11.9042 8.73359 11.352L8.4748 10.6495L8.66394 6.56855L9.1112 6.86729L9.22818 6.69207V6.69392L10.0673 5.56057L8.12554 4.23187C7.95083 4.11221 7.7439 4.0481 7.53193 4.0481H5.12191C4.77971 4.0481 4.45882 4.21475 4.26195 4.49486L2.29936 7.2877L0.225501 9.51194C-0.0742417 9.83333 -0.0786053 10.3405 0.233053 10.6505C0.559312 10.9749 1.08546 10.9616 1.39544 10.629L3.44026 8.43598C3.50454 8.36516 3.54348 8.33109 3.59232 8.26111L4.04864 7.60859L3.87679 11.3198C3.53207 12.0287 2.77331 13.5888 2.55195 14.0442C2.51771 14.1143 2.49237 14.1887 2.47642 14.2652L1.62536 18.3768C1.51997 18.8864 1.8474 19.3848 2.35693 19.4904C2.86528 19.5956 3.36474 19.2693 3.47047 18.7588L4.2977 14.7623C4.55616 14.2308 5.30736 12.6861 5.55323 12.1808L7.05966 12.2591C7.30973 12.938 7.62189 13.7854 7.85685 14.4236L8.06865 18.6155C8.10205 19.2774 8.78561 19.6867 9.37772 19.4353C9.09476 19.0158 9.02225 18.4661 9.23389 17.965L9.84881 16.5091Z" fill="#9EBC00"/>
<path d="M6.54698 3.56782C7.52308 3.61851 8.37079 2.86915 8.42231 1.87778C8.4735 0.893291 7.71692 0.0536396 6.73243 0.00245161C5.74795 -0.0487364 4.90813 0.707839 4.85694 1.69233C4.80558 2.68235 5.56921 3.51697 6.54698 3.56782Z" fill="#9EBC00"/>
<path d="M10.2534 14.2752L10.1539 14.964C10.1252 15.1617 10.1631 15.3626 10.2601 15.5356L10.82 14.21C10.6231 14.2264 10.4337 14.2487 10.2534 14.2752Z" fill="#9EBC00"/>
<path d="M13.1777 16.6536L12.342 18.6319L12.6765 19.1181C12.9605 19.531 13.5241 19.6334 13.9346 19.3509C14.3463 19.0678 14.4505 18.5046 14.1674 18.0929L13.1777 16.6536Z" fill="#9EBC00"/>
<path d="M11.5316 14.2192L9.82784 18.2532C9.63349 18.7134 9.84899 19.2442 10.3093 19.4387C10.7687 19.6326 11.3 19.4184 11.4947 18.9572L13.3863 14.4789C12.8129 14.3092 12.1927 14.2223 11.5316 14.2192Z" fill="#9EBC00"/>
<path d="M15.1364 2.42629C15.1364 3.37319 14.3689 4.14067 13.4221 4.14067C12.4752 4.14067 11.7078 3.37319 11.7078 2.42629C11.7078 1.47957 12.4752 0.711914 13.4221 0.711914C14.3689 0.711914 15.1364 1.47957 15.1364 2.42629Z" fill="#9EBC00"/>
<path d="M21.3122 5.57241C16.8379 5.04174 13.7426 4.7091 12.3925 4.56762C11.9199 4.51811 11.4566 4.72236 11.174 5.10434L9.25523 7.6988L9.17753 7.78205L9.06558 10.2011L10.4322 8.73532C10.4524 8.71367 10.4712 8.69101 10.4888 8.66735L10.9347 8.06517C10.9099 8.60491 10.8879 9.08423 10.863 9.62447C10.863 9.62447 9.11627 11.1648 8.39293 13.4302C8.28837 13.7576 8.58945 14.0706 8.92008 13.9776C9.52292 13.8081 10.4483 13.6116 11.4959 13.6116C12.5083 13.6116 13.6349 13.7952 14.6949 14.3645C15.1477 14.6077 15.6171 14.712 16.0889 14.712C18.1028 14.712 20.1656 12.8092 21.2246 11.6644C21.4628 11.4072 21.2364 10.996 20.8911 11.0567C20.3564 11.1507 19.6655 11.2368 18.9301 11.2368C17.477 11.2368 15.8496 10.9006 14.9049 9.62447C14.9166 9.36837 15.0354 6.78128 15.0532 6.3931L21.1291 7.11493C21.1602 7.11862 21.1911 7.12047 21.2218 7.12047C21.6098 7.12047 21.9451 6.83012 21.9921 6.43539C22.0426 6.00927 21.7383 5.62293 21.3122 5.57241Z" fill="#9EBC00"/>
</svg>
