<svg width="19" height="21" viewBox="0 0 19 21" fill="none" xmlns="http://www.w3.org/2000/svg">
<path d="M0 8.63525C0 9.79857 0.758441 10.7678 1.78125 11.0474V19.2603H0.59375C0.266705 19.2603 0 19.5398 0 19.8853C0 20.2307 0.266742 20.5103 0.59375 20.5103H18.4062C18.7356 20.5103 19 20.2307 19 19.8853C19 19.5398 18.7356 19.2603 18.4062 19.2603H17.2188V11.0474C18.2416 10.7678 19 9.79857 19 8.63525V8.01025H0V8.63525ZM11.875 11.1353C13.1877 11.1353 14.25 10.0159 14.25 8.63525C14.25 9.79857 15.0084 10.7678 16.0312 11.0474V19.2603H7.125V11.1353C8.43774 11.1353 9.5 10.0159 9.5 8.63525C9.5 10.0159 10.5646 11.1353 11.875 11.1353ZM6.53125 11.0474V19.2603H2.96875V11.0474C3.9916 10.7678 4.75 9.79857 4.75 8.63525C4.75 9.79857 5.50844 10.7678 6.53125 11.0474ZM16.625 2.38525H2.375L0 7.38525H19L16.625 2.38525ZM5.01674 3.77443L3.82924 6.27443C3.77588 6.38432 3.67153 6.44779 3.5625 6.44779C3.51841 6.44779 3.47321 6.43803 3.43028 6.41482C3.28414 6.33791 3.22384 6.14994 3.29806 5.99611L4.48556 3.49611C4.55978 3.34229 4.7372 3.28006 4.88333 3.35572C5.03066 3.43264 5.08862 3.62061 5.01674 3.77443ZM7.39174 3.77443L6.20424 6.27443C6.15088 6.38432 6.04653 6.44779 5.9375 6.44779C5.89341 6.44779 5.84821 6.43803 5.80528 6.41482C5.65914 6.33791 5.59884 6.14994 5.67306 5.99611L6.86056 3.49611C6.93478 3.34229 7.11338 3.28006 7.25833 3.35572C7.40566 3.43264 7.46362 3.62061 7.39174 3.77443ZM9.79688 6.13525C9.79688 6.30861 9.66469 6.44775 9.5 6.44775C9.3365 6.44775 9.20312 6.30857 9.20312 6.13525V3.63525C9.20312 3.46189 9.3365 3.32275 9.5 3.32275C9.66469 3.32275 9.79688 3.46193 9.79688 3.63525V6.13525ZM13.2063 6.40869C13.1599 6.43557 13.1112 6.44775 13.0625 6.44775C12.9581 6.44775 12.8561 6.38916 12.8027 6.28541L11.5039 3.78541C11.425 3.63404 11.4784 3.44361 11.6222 3.36182C11.7637 3.27881 11.9469 3.33252 12.0258 3.4851L13.3246 5.9851C13.4011 6.13647 13.3501 6.32689 13.2063 6.40869ZM15.5697 6.41479C15.528 6.43799 15.4839 6.44775 15.4375 6.44775C15.3285 6.44775 15.2241 6.38428 15.1731 6.27439L13.9856 3.77439C13.9114 3.62057 13.9717 3.4326 14.1178 3.35568C14.2616 3.27877 14.4425 3.34104 14.5167 3.49607L15.7042 5.99607C15.7761 6.1499 15.7181 6.33791 15.5697 6.41479ZM5.04688 15.6055V14.1651C4.87291 14.0552 4.75 13.8647 4.75 13.6353C4.75 13.2898 5.01674 13.0103 5.34375 13.0103C5.6731 13.0103 5.9375 13.2898 5.9375 13.6353C5.9375 13.8648 5.81574 14.0552 5.64062 14.1651V15.6055C5.81574 15.7154 5.9375 15.9058 5.9375 16.1353C5.9375 16.4808 5.6731 16.7603 5.34375 16.7603C5.01671 16.7603 4.75 16.4808 4.75 16.1353C4.75 15.9058 4.87294 15.7153 5.04688 15.6055ZM2.375 1.13525C2.375 0.789785 2.64174 0.510254 2.96875 0.510254H16.0312C16.3606 0.510254 16.625 0.789785 16.625 1.13525C16.625 1.48072 16.3606 1.76025 16.0312 1.76025H2.96875C2.64174 1.76025 2.375 1.48072 2.375 1.13525ZM10.4069 14.4812L9.9871 14.0393L11.6663 12.2717L12.0861 12.7136L10.4069 14.4812ZM10.4069 16.2488L9.9871 15.8069L13.3455 12.2717L13.7653 12.7136L10.4069 16.2488ZM13.3455 14.0393L13.7652 14.4812L12.086 16.2488L11.6663 15.8069L13.3455 14.0393Z" />
</svg>
