<svg width="20" height="21" viewBox="0 0 20 21" fill="none" xmlns="http://www.w3.org/2000/svg">
<path d="M19.645 6.64373L17.9912 4.9899L19.2344 3.74713C19.3443 3.63732 19.4061 3.48853 19.4061 3.33291C19.4061 3.17728 19.3443 3.02849 19.2345 2.91865L17.5699 1.25411C17.3502 1.03439 16.9611 1.03439 16.7414 1.25411L15.4986 2.49736L13.8445 0.843214C13.3869 0.385595 12.6449 0.385595 12.1873 0.843214C11.7296 1.30083 11.7296 2.04283 12.1873 2.50048L17.9877 8.301C18.4454 8.75862 19.1874 8.75862 19.645 8.301C20.1026 7.84338 20.1026 7.10139 19.645 6.64373Z" />
<path d="M7.80096 18.4994L2.00052 12.6989C1.54283 12.2413 0.80091 12.2413 0.343214 12.6989C-0.114405 13.1566 -0.114405 13.8986 0.343214 14.3562L1.99732 16.0103L0.756496 17.2506C0.646613 17.3605 0.584816 17.5093 0.584816 17.6649C0.584816 17.8205 0.646613 17.9693 0.756496 18.0792L2.42103 19.7432C2.53544 19.8576 2.68537 19.9149 2.83529 19.9149C2.98521 19.9149 3.13513 19.8576 3.24955 19.7432L4.48986 18.5029L6.14369 20.1567C6.60131 20.6144 7.34331 20.6144 7.80096 20.1567C8.25866 19.6991 8.25866 18.9571 7.80096 18.4994Z" />
<path d="M10.5294 7.47241L6.97217 11.0418L9.45811 13.5277L13.0154 9.95828L10.5294 7.47241Z" />
<path d="M17.9866 9.95823L10.5289 2.50044C10.0712 2.04282 9.32921 2.04282 8.87159 2.50044C8.4139 2.95814 8.4139 3.70005 8.87159 4.15775L16.3294 11.6155C16.787 12.0732 17.529 12.0732 17.9866 11.6155C18.4443 11.1579 18.4443 10.4159 17.9866 9.95823Z" />
<path d="M11.1148 16.842L3.657 9.38423C3.19938 8.92661 2.45739 8.92661 1.99977 9.38423C1.54207 9.84192 1.54207 10.5839 1.99977 11.0415L9.45756 18.4993C9.91518 18.9569 10.6572 18.9569 11.1148 18.4993C11.5725 18.0417 11.5725 17.2997 11.1148 16.842Z" />
</svg>
