<svg width="21" height="18" viewBox="0 0 21 18" fill="none" xmlns="http://www.w3.org/2000/svg">
<path d="M19.6875 7.5L15.75 10C15.75 9.24124 15.3878 8.57 14.8273 8.11124C16.1615 7.34562 17.0625 5.96624 17.0625 4.375C17.0625 1.95873 15.0058 0 12.4688 0C9.9317 0 7.875 1.95876 7.875 4.375C7.875 5.60062 8.40721 6.70562 9.26035 7.5H6.85321C7.4819 6.83562 7.875 5.965 7.875 5C7.875 2.92876 6.1123 1.25 3.9375 1.25C1.7627 1.25 0 2.92876 0 5C0 6.13 0.536152 7.13124 1.3663 7.81876C0.555848 8.24438 0 9.05624 0 10V15C0 16.3806 1.17535 17.5 2.625 17.5H13.125C14.5747 17.5 15.75 16.3806 15.75 15L19.6875 17.5C20.4127 17.5 21 16.9406 21 16.25V8.75C21 8.05938 20.4127 7.5 19.6875 7.5ZM3.9375 7.5C2.48785 7.5 1.3125 6.38062 1.3125 5C1.3125 3.61938 2.48785 2.5 3.9375 2.5C5.38715 2.5 6.5625 3.61938 6.5625 5C6.5625 6.38062 5.38715 7.5 3.9375 7.5ZM12.4688 7.50686C10.6523 7.50686 9.18029 6.10435 9.18029 4.375C9.18029 2.645 10.6529 1.24314 12.4688 1.24314C14.2846 1.24314 15.7572 2.645 15.7572 4.375C15.7572 6.105 14.2852 7.50686 12.4688 7.50686Z" fill="#9EBC00"/>
</svg>
