<svg xmlns="http://www.w3.org/2000/svg" width="14.5" height="16" viewBox="0 0 14.5 16"><defs><style>.a{fill:none;stroke:#000;stroke-linecap:round;stroke-linejoin:round;}</style></defs><g transform="translate(-160 -538.5)"><g transform="translate(156 536)"><path class="a" d="M6,6H16.5A1.5,1.5,0,0,1,18,7.5V18a1.5,1.5,0,0,1-1.5,1.5H6A1.5,1.5,0,0,1,4.5,18V7.5A1.5,1.5,0,0,1,6,6Z" transform="translate(0 -1.5)"/><path class="a" d="M24,3V6" transform="translate(-9.75 0)"/><path class="a" d="M12,3V6" transform="translate(-3.75 0)"/><path class="a" d="M4.5,15H18" transform="translate(0 -6)"/></g><path class="a" d="M0,4.385,2.193,2.193,0,0" transform="translate(169.271 549.068) rotate(90)"/><path class="a" d="M0,0H4.415" transform="translate(167.078 546.846) rotate(90)"/></g></svg>