<svg xmlns="http://www.w3.org/2000/svg" width="207" height="47.742" viewBox="0 0 207 47.742"><defs><style>.a{font-size:7px;font-family:NeueMachina-Regular, Neue Machina;}</style></defs><g transform="translate(-83 -18.629)"><text class="a" transform="translate(272 35)"><tspan x="0" y="0">2021</tspan></text><g transform="translate(-3341.475 -1625.745)"><g transform="translate(3526.321 1664.485)"><path d="M3723.173,1697.521h7.888v1.263h-6.408v4.458h5.505v1.264h-5.505v4.475h6.408v1.264h-7.888Z" transform="translate(-3723.173 -1697.34)"/><path d="M3757.661,1697.521l3.936,12.31h.415l3.952-12.31h1.463l-4.1,12.725H3760.3l-4.115-12.725Z" transform="translate(-3743.133 -1697.34)"/><path d="M3797.727,1697.521h7.888v1.263h-6.408v4.458h5.505v1.264h-5.505v4.475h6.408v1.264h-7.888Z" transform="translate(-3768.253 -1697.34)"/><path d="M3832.1,1697.521h2.978l6.354,12.31h.416l-.234-1.065v-11.245h1.461v12.725H3840.1l-6.336-12.31h-.415l.234,1.065v11.245h-1.48Z" transform="translate(-3789.041 -1697.34)"/><path d="M3883.73,1698.784h-4.4v11.462h-1.462v-11.462h-4.44v-1.263h10.307Z" transform="translate(-3814.024 -1697.34)"/><path d="M3915.613,1710.149c-4.44,0-5.757-1.967-5.757-4.945h1.48c0,3.014,1.606,3.682,4.277,3.682,2.166,0,3.413-.524,3.413-2.057,0-1.931-2.239-2.329-4.261-2.924-2.508-.758-4.332-1.444-4.332-3.7,0-1.949,1.372-3.141,4.512-3.141,3.754,0,5.036,2.292,5.036,4.368h-1.48c0-2.166-1.607-3.1-3.556-3.1-1.751,0-3.032.433-3.032,1.841,0,1.336,1.119,1.823,3.212,2.472,2.491.776,5.379,1.463,5.379,4.115C3920.5,1708.651,3919.368,1710.149,3915.613,1710.149Z" transform="translate(-3836.053 -1697.063)"/></g><g transform="translate(3424.475 1644.374)"><g transform="translate(0 3.124)"><path d="M3458.053,1697.547c-6.144-3.08-16.832-16.32-19.344-19.7l-.123-.21a.537.537,0,0,1,.51-.524l.163-.011a17.237,17.237,0,0,0,5.645.5c8.463-.561,17.728-6.3,20.149-13.326a10.64,10.64,0,0,0,.565-3.8c-.36-5.425-6.945-6.949-14.215-6.467-9.277.616-19.586,4.569-19.352,8.1a1.722,1.722,0,0,0,.274.854c1.36,2.416,5.421,2.855,5.709,7.195a12.519,12.519,0,0,1-.681,4.514l9.053-14.659a.339.339,0,0,1,.311-.239.487.487,0,0,1,.52.456l-.036.275-14.8,24.141c-3.047,5-5.7,9.369-7.1,12.023a.448.448,0,0,1-.415.3.421.421,0,0,1-.409-.409l.091-.278c1.5-2.879,4.335-7.753,7.624-13.2,3.871-6.523,5.037-10.306,4.876-12.748-.264-3.96-4.046-4.308-5.525-6.88a2.856,2.856,0,0,1-.408-1.226c-.284-4.286,10.332-8.532,20.042-9.177,7.813-.518,15.016,1.292,15.416,7.314a11.052,11.052,0,0,1-.645,4.239c-2.559,7.417-12.188,13.4-20.978,13.98a18.562,18.562,0,0,1-4.647-.236c3.037,3.885,12.538,15.679,18.118,18.468a.47.47,0,0,1,.242.365.372.372,0,0,1-.355.405Z" transform="translate(-3424.475 -1652.965)"/></g><g transform="translate(50.348)"><path d="M3569.926,1689.443l-.108-.81c-.554-8.355,8.1-36.283,7.83-40.351l-.072-.268a.5.5,0,0,0-.564-.29c-2.712.18-13.586,7.129-13.144,13.8a5.547,5.547,0,0,0,1.774,3.751.468.468,0,0,1,.185.315.525.525,0,0,1-.456.521.494.494,0,0,1-.391-.137,6.362,6.362,0,0,1-2.031-4.333c-.468-7.053,10.048-14.469,14.063-14.735a1.341,1.341,0,0,1,1.468.775l.083.43c.32,4.829-8.362,32.322-7.826,40.406l.1.756c.148.59.445.952.987.915l.322-.076c1.4-.311,5.318-6.075,10.525-13.831,7.494-11.069,15.042-22.9,24.86-31.777a.4.4,0,0,1,.318-.13.42.42,0,0,1,.459.35.392.392,0,0,1-.2.34c-9.713,8.819-17.2,20.7-24.642,31.763-5.359,7.93-9.325,13.86-11.1,14.25l-.484.086C3570.807,1691.238,3570.167,1690.626,3569.926,1689.443Z" transform="translate(-3562.932 -1644.374)"/></g></g></g></g></svg>