<svg width="9" height="17" viewBox="0 0 9 17" fill="none" xmlns="http://www.w3.org/2000/svg">
<path d="M8 3.99062H8.5V3.49062V1.10563V0.673924L8.07291 0.61097C7.82506 0.574435 7.04215 0.5 6.13816 0.5C5.10042 0.5 4.18165 0.853017 3.52611 1.56847C2.87468 2.27946 2.53333 3.29322 2.53333 4.52437V6.125H1H0.5V6.625V9.29125V9.79125H1H2.53333V16V16.5H3.03333H5.52629H6.02629V16V9.79187H7.47738H7.92266L7.97404 9.34957L8.28376 6.68332L8.34855 6.12563H7.7871H6.02571V4.78913C6.02599 4.41935 6.0789 4.24187 6.14612 4.15359C6.18805 4.09852 6.30312 3.99062 6.72202 3.99062H8Z" stroke="#ECEFDC"/>
</svg>
