<svg width="38" height="47" viewBox="0 0 38 47" fill="none" xmlns="http://www.w3.org/2000/svg">
<path d="M32.9728 6.32144C31.308 4.41503 29.2665 2.87078 26.9757 1.78506C24.685 0.69934 22.1941 0.0954433 19.6586 0.0110539C17.1075 -0.0758029 14.5649 0.34992 12.1826 1.26283C9.80033 2.17574 7.62705 3.55714 5.79242 5.32462C3.95778 7.09211 2.49938 9.20948 1.5042 11.5504C0.509024 13.8914 -0.00254443 16.408 9.51566e-06 18.9501C9.51566e-06 33.6217 11.548 42.9217 16.5141 46.2425C17.2503 46.7362 18.1176 47 19.0051 47C19.8926 47 20.76 46.7362 21.4961 46.2425C26.0583 43.2293 36.7509 34.7024 37.9231 21.3244C38.1611 18.6201 37.8451 15.8959 36.9942 13.3169C36.1432 10.7379 34.7751 8.35799 32.9728 6.32144Z" fill="#9EBC00"/>
<path d="M28.4735 29.0049L20.6311 21.1625L11.4686 12H10.7525L10.6063 12.3715C10.2204 13.3521 10.0556 14.3551 10.1296 15.2719C10.2139 16.3169 10.6109 17.2216 11.2777 17.8884L18.4304 25.0411L19.3739 24.0977L25.9866 31.4919C26.6444 32.1497 27.7766 32.1888 28.4735 31.4919C29.1592 30.8062 29.1592 29.6906 28.4735 29.0049Z" fill="#ECEFDC"/>
<path d="M15.1162 23.3845L9.51422 28.9865C8.82859 29.6721 8.82859 30.7878 9.51422 31.4734C10.1655 32.1248 11.2923 32.1823 12.0011 31.4734L17.6032 25.8714L15.1162 23.3845Z" fill="#ECEFDC"/>
<path d="M28.1445 15.3306L24.9667 18.5083L24.1377 17.6793L27.3155 14.5016L26.4865 13.6726L23.3087 16.8503L22.4798 16.0213L25.6575 12.8436L24.8286 12.0146L20.6837 16.1596C20.1766 16.6666 19.8738 17.3399 19.831 18.0555C19.8202 18.2368 19.7791 18.4151 19.7109 18.5847L22.4035 21.2772C22.5731 21.209 22.7514 21.1679 22.9327 21.1571C23.6482 21.1144 24.3215 20.8116 24.8286 20.3045L28.9735 16.1596L28.1445 15.3306Z" fill="#ECEFDC"/>
</svg>
