<svg width="66" height="82" viewBox="0 0 66 82" fill="none" xmlns="http://www.w3.org/2000/svg">
<path d="M57.2686 11.1673C54.377 7.8477 50.8312 5.15874 46.8526 3.2682C42.8739 1.37766 38.5476 0.326105 34.1438 0.17916C29.713 0.0279182 25.297 0.76922 21.1593 2.35885C17.0216 3.94848 13.247 6.35387 10.0605 9.43155C6.87404 12.5092 4.34103 16.1962 2.61256 20.2724C0.884095 24.3487 -0.00441927 28.7307 1.65272e-05 33.1573C1.65272e-05 58.7046 20.0571 74.8984 28.6825 80.6809C29.961 81.5406 31.4674 81.9999 33.0089 81.9999C34.5504 81.9999 36.0568 81.5406 37.3353 80.6809C45.2591 75.4341 63.8305 60.5864 65.8664 37.2915C66.2799 32.5827 65.731 27.839 64.253 23.3483C62.7751 18.8576 60.3989 14.7135 57.2686 11.1673Z" fill="#0F1C20"/>
<path fill-rule="evenodd" clip-rule="evenodd" d="M47.04 13.3599H18V52.9599H47.04V13.3599ZM33.8613 19.1726H37.4827V41.4929C37.4827 45.7573 35.5513 48.6001 32.5202 48.6001C29.4889 48.6001 27.5576 45.7573 27.5576 41.4929V19.1726H31.1789V41.4929C31.1789 42.6455 31.6618 43.4138 32.5202 43.4138C33.3785 43.4138 33.8613 42.6455 33.8613 41.4929V19.1726Z" fill="white"/>
</svg>
