<svg width="38" height="47" viewBox="0 0 38 47" fill="none" xmlns="http://www.w3.org/2000/svg">
<path d="M32.9728 6.32144C31.308 4.41503 29.2665 2.87078 26.9757 1.78506C24.685 0.69934 22.1941 0.0954433 19.6586 0.0110539C17.1075 -0.0758029 14.5649 0.34992 12.1826 1.26283C9.80033 2.17574 7.62705 3.55714 5.79242 5.32462C3.95778 7.09211 2.49938 9.20948 1.5042 11.5504C0.509024 13.8914 -0.00254443 16.408 9.51566e-06 18.9501C9.51566e-06 33.6217 11.548 42.9217 16.5141 46.2425C17.2503 46.7362 18.1176 47 19.0051 47C19.8926 47 20.76 46.7362 21.4961 46.2425C26.0583 43.2293 36.7509 34.7024 37.9231 21.3244C38.1611 18.6201 37.8451 15.8959 36.9942 13.3169C36.1432 10.7379 34.7751 8.35799 32.9728 6.32144Z" fill="#9EBC00"/>
<path d="M23.2352 22.7092C24.1539 21.7427 24.7132 20.4636 24.7132 19.0606C24.7132 18.3612 24.5741 17.6926 24.3209 17.0781C25.0853 16.7575 25.6223 16.0021 25.6223 15.1213C25.6223 13.9497 24.6726 13 23.5011 13C22.6567 13 21.9277 13.4934 21.5863 14.2076C20.7978 13.8232 19.9035 13.6061 18.9557 13.6061C18.0079 13.6061 17.1135 13.8232 16.3249 14.2076C15.9835 13.4934 15.2545 13 14.4102 13C13.2387 13 12.289 13.9497 12.289 15.1212C12.289 16.0021 12.8259 16.7575 13.5904 17.078C13.3372 17.6925 13.1981 18.3611 13.1981 19.0606C13.1981 20.4636 13.7574 21.7427 14.6761 22.7092C13.0654 24.2331 10.4792 26.6845 11.0922 29.1362C11.3755 30.2699 12.115 30.7187 12.8977 30.7594C12.9533 29.3086 14.016 28.1515 15.3193 28.1515C16.6582 28.1515 17.7436 29.3725 17.7436 30.8788C17.7436 31.7357 17.3919 32.5 16.8425 33C17.7883 33 18.8448 33 18.9557 33C19.1886 33 20.18 33 21.0689 33C20.5193 32.5 20.1678 31.7357 20.1678 30.8788C20.1678 29.3725 21.2531 28.1515 22.592 28.1515C23.8953 28.1515 24.958 29.3086 25.0136 30.7593C25.7963 30.7186 26.5358 30.2698 26.8192 29.1362C27.4321 26.6845 24.846 24.2332 23.2352 22.7092ZM14.188 16.0018C13.7935 15.9025 13.5011 15.5465 13.5011 15.1212C13.5011 14.6191 13.9081 14.2121 14.4102 14.2121C14.8219 14.2121 15.1692 14.486 15.2811 14.8613C14.8626 15.1904 14.4941 15.5744 14.188 16.0018ZM21.3799 18.6061C21.631 18.6061 21.8344 18.8096 21.8344 19.0606C21.8344 19.3116 21.631 19.5151 21.3799 19.5151C21.1288 19.5151 20.9254 19.3116 20.9254 19.0606C20.9254 18.8096 21.1288 18.6061 21.3799 18.6061ZM16.5314 18.6061C16.7825 18.6061 16.9859 18.8096 16.9859 19.0606C16.9859 19.3116 16.7825 19.5151 16.5314 19.5151C16.2803 19.5151 16.0769 19.3116 16.0769 19.0606C16.0769 18.8096 16.2803 18.6061 16.5314 18.6061ZM18.9557 24.5152C16.9473 24.5152 15.3193 23.4298 15.3193 22.0909C15.3193 20.752 16.9473 19.6666 18.9557 19.6666C20.964 19.6666 22.592 20.752 22.592 22.0909C22.592 23.4298 20.9639 24.5152 18.9557 24.5152ZM22.6302 14.8614C22.742 14.486 23.0894 14.2121 23.5011 14.2121C24.0032 14.2121 24.4102 14.6192 24.4102 15.1213C24.4102 15.5465 24.1178 15.9026 23.7233 16.0019C23.4172 15.5744 23.0487 15.1904 22.6302 14.8614Z" fill="white"/>
<path d="M15.2811 32.091C15.8668 32.091 16.3417 31.6161 16.3417 31.0303C16.3417 30.4446 15.8668 29.9697 15.2811 29.9697C14.6953 29.9697 14.2205 30.4446 14.2205 31.0303C14.2205 31.6161 14.6953 32.091 15.2811 32.091Z" fill="white"/>
<path d="M22.6295 32.091C23.2152 32.091 23.6901 31.6161 23.6901 31.0303C23.6901 30.4446 23.2152 29.9697 22.6295 29.9697C22.0437 29.9697 21.5688 30.4446 21.5688 31.0303C21.5688 31.6161 22.0437 32.091 22.6295 32.091Z" fill="white"/>
<path d="M18.9558 20.8787C18.2863 20.8787 17.7437 20.9492 17.7437 21.4847C17.7437 22.0202 18.2863 22.6968 18.9558 22.6968C19.6252 22.6968 20.1679 22.0202 20.1679 21.4847C20.1679 20.9492 19.6252 20.8787 18.9558 20.8787Z" fill="white"/>
</svg>
