<svg width="38" height="47" viewBox="0 0 38 47" fill="none" xmlns="http://www.w3.org/2000/svg">
<path d="M32.9728 6.32144C31.308 4.41503 29.2665 2.87078 26.9757 1.78506C24.685 0.69934 22.1941 0.0954433 19.6586 0.0110539C17.1075 -0.0758029 14.5649 0.34992 12.1826 1.26283C9.80033 2.17574 7.62705 3.55714 5.79242 5.32462C3.95778 7.09211 2.49938 9.20948 1.5042 11.5504C0.509024 13.8914 -0.00254443 16.408 9.51566e-06 18.9501C9.51566e-06 33.6217 11.548 42.9217 16.5141 46.2425C17.2503 46.7362 18.1176 47 19.0051 47C19.8926 47 20.76 46.7362 21.4961 46.2425C26.0583 43.2293 36.7509 34.7024 37.9231 21.3244C38.1611 18.6201 37.8451 15.8959 36.9942 13.3169C36.1432 10.7379 34.7751 8.35799 32.9728 6.32144Z" fill="#9EBC00"/>
<path d="M23.35 15L19.5 19.6264L15.6457 15L10 25H13.85L15.9903 21.2674L19.5 25L23.0097 21.2674L25.15 25H29L23.35 15Z" fill="#ECEFDC"/>
</svg>
