<svg width="38" height="47" viewBox="0 0 38 47" fill="none" xmlns="http://www.w3.org/2000/svg">
<path d="M32.9728 6.32144C31.308 4.41503 29.2665 2.87078 26.9757 1.78506C24.6849 0.69934 22.1941 0.0954433 19.6586 0.0110539C17.1075 -0.0758029 14.5649 0.34992 12.1826 1.26283C9.80033 2.17574 7.62705 3.55714 5.79242 5.32462C3.95778 7.09211 2.49938 9.20948 1.5042 11.5504C0.509024 13.8914 -0.00254443 16.408 9.51566e-06 18.9501C9.51566e-06 33.6217 11.548 42.9217 16.5141 46.2425C17.2503 46.7362 18.1176 47 19.0051 47C19.8926 47 20.76 46.7362 21.4961 46.2425C26.0583 43.2293 36.7509 34.7024 37.9231 21.3244C38.1611 18.6201 37.8451 15.8959 36.9942 13.3169C36.1432 10.7379 34.7751 8.35799 32.9728 6.32144Z" fill="#9EBC00"/>
<path fill-rule="evenodd" clip-rule="evenodd" d="M27.0199 27.8402C27.0346 27.9994 27.0241 28.1606 27.0241 28.3445C27.2838 28.3445 27.6585 28.3445 27.9266 28.3445C27.9369 28.1223 27.9472 27.8993 27.9595 27.6335C28.6821 27.7096 29.3163 27.7338 29.9876 27.9991C29.9918 28.0376 29.9958 28.0761 30 28.1144C29.8313 28.1709 29.6663 28.2591 29.4937 28.2787C28.4584 28.3963 27.4238 28.5579 26.3852 28.5936C23.6966 28.6858 21.0056 28.7686 18.316 28.7637C15.5886 28.7586 12.8579 28.7101 10.144 28.3788C9.84419 28.3421 9.54833 28.2693 9.25246 28.2052C9.1834 28.1902 9.12203 28.1408 9 28.0778C9.3367 27.8101 9.69789 27.8111 10.0316 27.7653C10.641 27.6816 11.2554 27.6314 11.869 27.5857C12.0501 27.5719 12.1306 27.4979 12.1985 27.34C12.7888 25.9654 13.0824 24.5258 13.1458 23.0369C13.2018 21.7162 13.1134 20.4049 12.8607 19.106C12.8502 19.0518 12.8357 18.9982 12.8273 18.9634C12.5025 19.0782 12.1959 19.2357 11.8718 19.2933C10.3307 19.5668 9.077 18.0893 9.58356 16.6061C9.63933 16.443 9.62976 16.3415 9.52243 16.2033C8.8677 15.3633 8.96057 14.174 9.73569 13.4454C9.85726 13.3313 9.90812 13.2265 9.90462 13.0578C9.87546 11.728 10.8697 10.8038 12.1915 10.9074C12.2904 10.9149 12.4279 10.854 12.4948 10.7779C13.3439 9.81403 14.6144 9.7382 15.5734 10.5934C15.6413 10.6538 15.7972 10.6818 15.8807 10.6477C17.4419 10.0133 18.9495 11.1468 18.7913 12.8361C18.7824 12.9313 18.8452 13.072 18.9217 13.1311C20.0867 14.0322 20.0816 15.6132 18.9002 16.5083C18.7922 16.5902 18.7122 16.6485 18.7374 16.8223C18.8589 17.6691 18.5621 18.3642 17.8628 18.8449C17.171 19.3204 16.4279 19.3288 15.6826 18.938C15.6343 18.9128 15.5832 18.892 15.4819 18.8456C15.3914 19.3832 15.2857 19.8892 15.2243 20.4005C14.9488 22.6936 15.1812 24.9353 15.9213 27.1258C15.9978 27.3523 16.1047 27.4107 16.3282 27.3962C16.6563 27.3745 16.8436 27.3906 17.2062 27.3906C17.2062 27.711 17.2144 28.0773 17.2144 28.4093C17.4881 28.4093 17.9541 28.4091 18.2306 28.4091C18.2306 28.152 18.2131 27.865 18.2131 27.865C18.2131 27.865 18.2882 27.8631 18.2376 27.8542C18.302 27.8701 18.2644 27.8407 18.2644 27.8407C18.2644 27.8407 18.2945 27.7793 18.3015 27.8542C18.5523 27.8542 18.9735 27.8757 19.2334 27.8757C19.2437 27.7378 19.2477 27.5332 19.2624 27.3372C21.5644 27.3852 23.6749 27.4216 25.9711 27.4695C25.9991 27.6027 25.9797 27.8153 26.0021 27.9217C26.2322 27.9217 26.7504 27.9324 26.9231 27.9324C26.9406 27.8323 26.9191 27.5173 26.9191 27.5173C26.9191 27.5173 26.9522 27.5222 27.0085 27.5082" fill="#ECEFDC"/>
<path fill-rule="evenodd" clip-rule="evenodd" d="M28.2485 25.6678C28.0794 25.6825 27.9508 25.6662 27.7963 25.6795C27.7963 26.3335 27.7963 26.9763 27.7963 27.6192C27.7963 27.7326 27.7973 27.8462 27.7977 27.9596C27.7991 28.3413 27.8152 28.2466 27.4498 28.2597C27.2172 28.2678 27.1197 28.2772 27.1239 28.0375C27.1369 27.2619 27.1288 26.4859 27.1288 25.6863C27.0147 25.6863 26.9185 25.6863 26.7851 25.6863C26.7851 26.2761 26.7883 26.8608 26.7818 27.4456C26.7806 27.5506 26.755 27.7379 26.7137 27.7456C26.5429 27.7783 26.3595 27.7697 26.1859 27.7424C26.1532 27.7375 26.1285 27.5783 26.1278 27.4899C26.1226 26.8942 26.125 26.2988 26.125 25.6818C23.7679 25.6818 21.4334 25.6818 19.0628 25.6818C19.0628 26.3755 19.0628 27.0613 19.0628 27.7386C19.0019 27.758 18.9762 27.7715 18.9494 27.7739C18.3975 27.8282 18.3919 27.8196 18.3973 27.275C18.4024 26.7472 18.3985 26.2194 18.3985 25.6772C18.282 25.6772 18.202 25.6772 18.0842 25.6772C18.0842 26.2418 18.0835 26.7974 18.0844 27.3527C18.0846 27.5802 18.0751 27.8086 18.0935 28.0347C18.118 28.3329 17.9458 28.3392 17.7209 28.3437C17.4931 28.3486 17.4033 28.2916 17.4089 28.0445C17.4248 27.3529 17.415 26.6606 17.414 25.9688C17.414 25.8764 17.4066 25.784 17.4019 25.6781C17.2948 25.6671 17.2591 25.6704 17.092 25.6676C17.092 25.4637 17.1109 25.3498 17.1436 25.2026C17.4941 24.6958 17.8875 24.1953 17.8875 24.1953C17.8875 24.1953 18.4433 24.2006 18.9235 24.2006C21.7477 24.2006 24.5724 24.2037 27.3969 24.1953C27.5002 24.1948 27.6577 24.1953 27.6577 24.1953C27.6577 24.1953 27.7793 24.3546 27.8241 24.4659C27.9422 24.7602 28.0957 25.0402 28.2198 25.3321C28.2546 25.4133 28.2387 25.5428 28.2485 25.6678Z" fill="#ECEFDC"/>
<path fill-rule="evenodd" clip-rule="evenodd" d="M27.6555 22.6045C27.6555 22.8077 27.6555 22.8738 27.6555 23.0954C24.4006 23.0954 21.1519 23.0954 17.8857 23.0954C17.8857 22.8896 17.8857 22.8245 17.8857 22.6045C21.1407 22.6045 24.3903 22.6045 27.6555 22.6045Z" fill="#ECEFDC"/>
<path fill-rule="evenodd" clip-rule="evenodd" d="M27.6565 23.4014C27.6565 23.6179 27.6649 23.7129 27.6649 23.9446C27.5655 23.95 27.4663 23.96 27.3676 23.96C24.3091 23.9609 21.2546 23.9343 18.1956 23.9458C18.0654 23.9462 17.8962 23.9507 17.8962 23.9507C17.8962 23.9507 17.8892 23.8545 17.8878 23.725C17.8864 23.579 17.8878 23.382 17.8878 23.382C17.8878 23.382 18.0745 23.3816 18.1881 23.382C21.2466 23.393 24.3054 23.3881 27.3639 23.3881C27.456 23.3883 27.5482 23.3963 27.6565 23.4014Z" fill="#ECEFDC"/>
<path fill-rule="evenodd" clip-rule="evenodd" d="M17.9196 21.7185C21.1718 21.7185 24.4004 21.7185 27.6509 21.7185C27.6509 21.9332 27.649 22.0711 27.649 22.306C27.5361 22.306 27.4346 22.306 27.3333 22.306C24.339 22.3058 21.3449 22.306 18.3506 22.3056C18.1011 22.3056 17.9124 22.306 17.9124 22.306C17.9124 22.306 17.9028 22.062 17.9196 21.7185Z" fill="#ECEFDC"/>
</svg>
