<svg width="38" height="47" viewBox="0 0 38 47" fill="none" xmlns="http://www.w3.org/2000/svg">
<path d="M32.9728 6.32144C31.308 4.41503 29.2665 2.87078 26.9757 1.78506C24.685 0.69934 22.1941 0.0954433 19.6586 0.0110539C17.1075 -0.0758029 14.5649 0.34992 12.1826 1.26283C9.80033 2.17574 7.62705 3.55714 5.79242 5.32462C3.95778 7.09211 2.49938 9.20948 1.5042 11.5504C0.509024 13.8914 -0.00254443 16.408 9.51566e-06 18.9501C9.51566e-06 33.6217 11.548 42.9217 16.5141 46.2425C17.2503 46.7362 18.1176 47 19.0051 47C19.8926 47 20.76 46.7362 21.4961 46.2425C26.0583 43.2293 36.7509 34.7024 37.9231 21.3244C38.1611 18.6201 37.8451 15.8959 36.9942 13.3169C36.1432 10.7379 34.7751 8.35799 32.9728 6.32144Z" fill="#9EBC00"/>
<path d="M21.8105 12.7341C21.7687 11.2195 20.5245 10 19 10C17.4755 10 16.2313 11.2195 16.1895 12.7341C13.4974 13.8016 11.5 16.5116 11.5 19.6875V28.125C11.5 29.159 12.341 30 13.375 30H24.625C25.659 30 26.5 29.159 26.5 28.125V19.6875C26.5 16.5189 24.5093 13.8043 21.8105 12.7341ZM19 11.25C19.6954 11.25 20.2859 11.7067 20.4879 12.3359C19.5165 12.1396 18.4991 12.1364 17.5121 12.3359C17.7141 11.7067 18.3046 11.25 19 11.25ZM24 25.9375C24 26.9715 23.159 27.8125 22.125 27.8125H15.875C14.841 27.8125 14 26.9715 14 25.9375V23.75C14 22.716 14.841 21.875 15.875 21.875H22.125C23.159 21.875 24 22.716 24 23.75V25.9375ZM23.6875 20.3125C23.3422 20.3125 23.0625 20.0328 23.0625 19.6875C23.0625 17.4473 21.2402 15.625 19 15.625C16.7598 15.625 14.9375 17.4473 14.9375 19.6875C14.9375 20.0328 14.6578 20.3125 14.3125 20.3125C13.9672 20.3125 13.6875 20.0328 13.6875 19.6875C13.6875 16.7582 16.0707 14.375 19 14.375C21.9293 14.375 24.3125 16.7582 24.3125 19.6875C24.3125 20.0328 24.0328 20.3125 23.6875 20.3125Z" fill="#ECEFDC"/>
<path d="M22.125 23.125H15.875C15.5305 23.125 15.25 23.4055 15.25 23.75V25.9375C15.25 26.282 15.5305 26.5625 15.875 26.5625H22.125C22.4695 26.5625 22.75 26.282 22.75 25.9375V23.75C22.75 23.4055 22.4695 23.125 22.125 23.125Z" fill="#ECEFDC"/>
<path d="M28.375 20.625H27.9453C27.8375 20.625 27.75 20.7125 27.75 20.8203V27.3834C27.75 27.5562 27.9594 27.6454 28.0816 27.5234C28.6487 26.9571 29 26.1752 29 25.3125V21.25C29 20.9048 28.7202 20.625 28.375 20.625Z" fill="#ECEFDC"/>
<path d="M9 21.25V25.3125C9 26.1752 9.35129 26.9571 9.91836 27.5234C10.0406 27.6455 10.25 27.5562 10.25 27.3834V20.8203C10.25 20.7125 10.1625 20.625 10.0547 20.625H9.625C9.2798 20.625 9 20.9048 9 21.25Z" fill="#ECEFDC"/>
</svg>
