<svg width="38" height="47" viewBox="0 0 38 47" fill="none" xmlns="http://www.w3.org/2000/svg">
<path d="M32.9728 6.32144C31.308 4.41503 29.2665 2.87078 26.9757 1.78506C24.6849 0.69934 22.1941 0.0954433 19.6586 0.0110539C17.1075 -0.0758029 14.5649 0.34992 12.1826 1.26283C9.80033 2.17574 7.62705 3.55714 5.79242 5.32462C3.95778 7.09211 2.49938 9.20948 1.5042 11.5504C0.509024 13.8914 -0.00254443 16.408 9.51566e-06 18.9501C9.51566e-06 33.6217 11.548 42.9217 16.5141 46.2425C17.2503 46.7362 18.1176 47 19.0051 47C19.8926 47 20.76 46.7362 21.4961 46.2425C26.0583 43.2293 36.7509 34.7024 37.9231 21.3244C38.1611 18.6201 37.8451 15.8959 36.9942 13.3169C36.1432 10.7379 34.7751 8.35799 32.9728 6.32144Z" fill="#9EBC00"/>
<path d="M10 17.125C10 18.2883 10.7584 19.2576 11.7812 19.5371V27.75H10.5938C10.2667 27.75 10 28.0295 10 28.375C10 28.7205 10.2667 29 10.5938 29H28.4062C28.7356 29 29 28.7205 29 28.375C29 28.0295 28.7356 27.75 28.4062 27.75H27.2188V19.5371C28.2416 19.2576 29 18.2883 29 17.125V16.5H10V17.125ZM21.875 19.625C23.1877 19.625 24.25 18.5056 24.25 17.125C24.25 18.2883 25.0084 19.2576 26.0312 19.5371V27.75H17.125V19.625C18.4377 19.625 19.5 18.5056 19.5 17.125C19.5 18.5056 20.5646 19.625 21.875 19.625ZM16.5312 19.5371V27.75H12.9688V19.5371C13.9916 19.2576 14.75 18.2883 14.75 17.125C14.75 18.2883 15.5084 19.2576 16.5312 19.5371ZM26.625 10.875H12.375L10 15.875H29L26.625 10.875ZM15.0167 12.2642L13.8292 14.7642C13.7759 14.8741 13.6715 14.9375 13.5625 14.9375C13.5184 14.9375 13.4732 14.9278 13.4303 14.9046C13.2841 14.8277 13.2238 14.6397 13.2981 14.4859L14.4856 11.9859C14.5598 11.832 14.7372 11.7698 14.8833 11.8455C15.0307 11.9224 15.0886 12.1104 15.0167 12.2642ZM17.3917 12.2642L16.2042 14.7642C16.1509 14.8741 16.0465 14.9375 15.9375 14.9375C15.8934 14.9375 15.8482 14.9278 15.8053 14.9046C15.6591 14.8277 15.5988 14.6397 15.6731 14.4859L16.8606 11.9859C16.9348 11.832 17.1134 11.7698 17.2583 11.8455C17.4057 11.9224 17.4636 12.1104 17.3917 12.2642ZM19.7969 14.625C19.7969 14.7984 19.6647 14.9375 19.5 14.9375C19.3365 14.9375 19.2031 14.7983 19.2031 14.625V12.125C19.2031 11.9516 19.3365 11.8125 19.5 11.8125C19.6647 11.8125 19.7969 11.9517 19.7969 12.125V14.625ZM23.2063 14.8984C23.1599 14.9253 23.1112 14.9375 23.0625 14.9375C22.9581 14.9375 22.8561 14.8789 22.8027 14.7752L21.5039 12.2752C21.425 12.1238 21.4784 11.9334 21.6222 11.8516C21.7637 11.7686 21.9469 11.8223 22.0258 11.9748L23.3246 14.4748C23.4011 14.6262 23.3501 14.8166 23.2063 14.8984ZM25.5697 14.9045C25.528 14.9277 25.4839 14.9375 25.4375 14.9375C25.3285 14.9375 25.2241 14.874 25.1731 14.7641L23.9856 12.2641C23.9114 12.1103 23.9717 11.9223 24.1178 11.8454C24.2616 11.7685 24.4425 11.8308 24.5167 11.9858L25.7042 14.4858C25.7761 14.6396 25.7181 14.8277 25.5697 14.9045ZM15.0469 24.0952V22.6548C14.8729 22.545 14.75 22.3545 14.75 22.125C14.75 21.7796 15.0167 21.5 15.3438 21.5C15.6731 21.5 15.9375 21.7796 15.9375 22.125C15.9375 22.3545 15.8157 22.545 15.6406 22.6548V24.0952C15.8157 24.2051 15.9375 24.3955 15.9375 24.625C15.9375 24.9705 15.6731 25.25 15.3438 25.25C15.0167 25.25 14.75 24.9705 14.75 24.625C14.75 24.3955 14.8729 24.2051 15.0469 24.0952ZM12.375 9.625C12.375 9.27953 12.6417 9 12.9688 9H26.0312C26.3606 9 26.625 9.27953 26.625 9.625C26.625 9.97047 26.3606 10.25 26.0312 10.25H12.9688C12.6417 10.25 12.375 9.97047 12.375 9.625ZM20.4069 22.9709L19.9871 22.529L21.6663 20.7614L22.0861 21.2034L20.4069 22.9709ZM20.4069 24.7385L19.9871 24.2966L23.3455 20.7614L23.7653 21.2034L20.4069 24.7385ZM23.3455 22.5291L23.7652 22.971L22.086 24.7386L21.6663 24.2966L23.3455 22.5291Z" fill="#ECEFDC"/>
</svg>
