<svg width="38" height="47" viewBox="0 0 38 47" fill="none" xmlns="http://www.w3.org/2000/svg">
<path d="M32.9728 6.32144C31.308 4.41503 29.2665 2.87078 26.9757 1.78506C24.6849 0.69934 22.1941 0.0954433 19.6586 0.0110539C17.1075 -0.0758029 14.5649 0.34992 12.1826 1.26283C9.80033 2.17574 7.62705 3.55714 5.79242 5.32462C3.95778 7.09211 2.49938 9.20948 1.5042 11.5504C0.509024 13.8914 -0.00254443 16.408 9.51566e-06 18.9501C9.51566e-06 33.6217 11.548 42.9217 16.5141 46.2425C17.2503 46.7362 18.1176 47 19.0051 47C19.8926 47 20.76 46.7362 21.4961 46.2425C26.0583 43.2293 36.7509 34.7024 37.9231 21.3244C38.1611 18.6201 37.8451 15.8959 36.9942 13.3169C36.1432 10.7379 34.7751 8.35799 32.9728 6.32144Z" fill="#9EBC00"/>
<path d="M28.645 15.1437L26.9912 13.4899L28.2344 12.2471C28.3443 12.1373 28.4061 11.9885 28.4061 11.8329C28.4061 11.6773 28.3443 11.5285 28.2345 11.4186L26.5699 9.75411C26.3502 9.53439 25.9611 9.53439 25.7414 9.75411L24.4986 10.9974L22.8445 9.34321C22.3869 8.8856 21.6449 8.8856 21.1873 9.34321C20.7296 9.80083 20.7296 10.5428 21.1873 11.0005L26.9877 16.801C27.4454 17.2586 28.1874 17.2586 28.645 16.801C29.1026 16.3434 29.1026 15.6014 28.645 15.1437Z" fill="#ECEFDC"/>
<path d="M16.801 26.9994L11.0005 21.1989C10.5428 20.7413 9.80091 20.7413 9.34321 21.1989C8.8856 21.6566 8.8856 22.3986 9.34321 22.8562L10.9973 24.5103L9.7565 25.7506C9.64661 25.8605 9.58482 26.0093 9.58482 26.1649C9.58482 26.3205 9.64661 26.4693 9.7565 26.5792L11.421 28.2432C11.5354 28.3576 11.6854 28.4149 11.8353 28.4149C11.9852 28.4149 12.1351 28.3576 12.2495 28.2432L13.4899 27.0029L15.1437 28.6567C15.6013 29.1144 16.3433 29.1144 16.801 28.6567C17.2587 28.1991 17.2587 27.4571 16.801 26.9994Z" fill="#ECEFDC"/>
<path d="M19.5294 15.9724L15.9722 19.5418L18.4581 22.0277L22.0154 18.4583L19.5294 15.9724Z" fill="#ECEFDC"/>
<path d="M26.9866 18.4582L19.5289 11.0004C19.0712 10.5428 18.3292 10.5428 17.8716 11.0004C17.4139 11.4581 17.4139 12.2001 17.8716 12.6577L25.3294 20.1155C25.787 20.5732 26.529 20.5732 26.9866 20.1155C27.4443 19.6579 27.4443 18.9159 26.9866 18.4582Z" fill="#ECEFDC"/>
<path d="M20.1148 25.342L12.657 17.8842C12.1994 17.4266 11.4574 17.4266 10.9998 17.8842C10.5421 18.3419 10.5421 19.0839 10.9998 19.5415L18.4576 26.9993C18.9152 27.4569 19.6572 27.4569 20.1148 26.9993C20.5725 26.5417 20.5725 25.7997 20.1148 25.342Z" fill="#ECEFDC"/>
</svg>
