<svg width="38" height="47" viewBox="0 0 38 47" fill="none" xmlns="http://www.w3.org/2000/svg">
<path d="M32.9728 6.32144C31.308 4.41503 29.2665 2.87078 26.9757 1.78506C24.685 0.69934 22.1941 0.0954433 19.6586 0.0110539C17.1075 -0.0758029 14.5649 0.34992 12.1826 1.26283C9.80033 2.17574 7.62705 3.55714 5.79242 5.32462C3.95778 7.09211 2.49938 9.20948 1.5042 11.5504C0.509024 13.8914 -0.00254443 16.408 9.51566e-06 18.9501C9.51566e-06 33.6217 11.548 42.9217 16.5141 46.2425C17.2503 46.7362 18.1176 47 19.0051 47C19.8926 47 20.76 46.7362 21.4961 46.2425C26.0583 43.2293 36.7509 34.7024 37.9231 21.3244C38.1611 18.6201 37.8451 15.8959 36.9942 13.3169C36.1432 10.7379 34.7751 8.35799 32.9728 6.32144Z" fill="#9EBC00"/>
<path d="M20.2838 24.0279C19.9278 24.2462 19.472 24.3665 19.0001 24.3665C18.5283 24.3665 18.0725 24.2462 17.7165 24.0279L11.9049 20.4636C11.9049 20.4636 11.3804 20.1421 11.3804 20.8705C11.3804 21.6976 11.3804 24.179 11.3804 24.179C11.3804 24.2121 11.3804 24.3781 11.3804 24.4296C11.3804 26.3045 14.7918 28.3258 19 28.3258C23.2082 28.3258 26.6196 26.3046 26.6196 24.4296C26.6196 24.3781 26.6196 24.2121 26.6196 24.179C26.6196 24.179 26.6196 21.5471 26.6196 20.6698C26.6196 20.0851 26.2467 20.3708 26.2467 20.3708L20.2838 24.0279Z" fill="white"/>
<path d="M28.6651 17.6285C29.1116 17.3546 29.1116 16.9064 28.6651 16.6325L19.8119 12.2054C19.3653 11.9315 18.6346 11.9315 18.1881 12.2054L9.33491 16.6325C8.88836 16.9064 8.88836 17.3546 9.33491 17.6285L18.1881 23.0582C18.6346 23.332 19.3653 23.332 19.8119 23.0582" fill="white"/>
<path d="M28.299 25.6766C28.299 24.1775 28.299 19.6799 28.299 19.6799C28.299 19.6799 28.3031 19.3959 28.1346 19.4897C27.9994 19.5649 27.668 19.7497 27.5513 19.8512C27.4165 19.9684 27.4468 20.2314 27.4468 20.2314C27.4468 20.2314 27.4468 24.3153 27.4468 25.6766C27.4468 25.7539 27.3804 25.7908 27.3487 25.8095C27.0427 25.9894 26.8369 26.3215 26.8369 26.7022C26.8369 27.2744 27.3007 27.7382 27.8729 27.7382C28.4451 27.7382 28.9089 27.2744 28.9089 26.7022C28.9089 26.32 28.7016 25.9869 28.3936 25.8074C28.363 25.7896 28.299 25.7539 28.299 25.6766Z" fill="white"/>
</svg>
